<?xml version="1.0" encoding="UTF-8" standalone="no"?>
<svg
   xmlns:dc="http://purl.org/dc/elements/1.1/"
   xmlns:cc="http://creativecommons.org/ns#"
   xmlns:rdf="http://www.w3.org/1999/02/22-rdf-syntax-ns#"
   xmlns:svg="http://www.w3.org/2000/svg"
   xmlns="http://www.w3.org/2000/svg"
   xmlns:sodipodi="http://sodipodi.sourceforge.net/DTD/sodipodi-0.dtd"
   xmlns:inkscape="http://www.inkscape.org/namespaces/inkscape"
   id="svg"
   version="1.1"
   width="400"
   height="382.54716981132077"
   viewBox="0, 0, 400,382.54716981132077"
   sodipodi:docname="image2vector (1).svg"
   inkscape:version="0.92.4 (5da689c313, 2019-01-14)">
  <metadata
     id="metadata826">
    <rdf:RDF>
      <cc:Work
         rdf:about="">
        <dc:format>image/svg+xml</dc:format>
        <dc:type
           rdf:resource="http://purl.org/dc/dcmitype/StillImage" />
      </cc:Work>
    </rdf:RDF>
  </metadata>
  <defs
     id="defs824" />
  <sodipodi:namedview
     pagecolor="#ffffff"
     bordercolor="#666666"
     borderopacity="1"
     objecttolerance="10"
     gridtolerance="10"
     guidetolerance="10"
     inkscape:pageopacity="0"
     inkscape:pageshadow="2"
     inkscape:window-width="3700"
     inkscape:window-height="2126"
     id="namedview822"
     showgrid="false"
     inkscape:zoom="4.9745498"
     inkscape:cx="246.31354"
     inkscape:cy="263.64195"
     inkscape:window-x="129"
     inkscape:window-y="-11"
     inkscape:window-maximized="1"
     inkscape:current-layer="svgg" />
  <g
     id="svgg">
    <path
       id="path0"
       d="M0.000 191.274 L 0.000 382.547 200.000 382.547 L 400.000 382.547 400.000 191.274 L 400.000 0.000 200.000 0.000 L 0.000 0.000 0.000 191.274 M297.288 22.198 C 297.807 22.408,298.868 22.762,299.646 22.983 C 313.976 27.065,329.624 37.223,339.636 48.941 C 348.377 59.172,354.573 71.050,357.783 83.726 C 360.600 94.854,360.367 85.668,360.372 185.564 C 360.378 282.421,360.511 275.131,358.575 284.198 C 353.104 309.830,335.588 332.088,312.053 343.313 C 308.039 345.228,308.161 345.173,306.604 345.755 C 305.890 346.021,305.094 346.335,304.835 346.451 C 303.361 347.112,297.693 348.822,293.278 349.937 C 291.713 350.332,286.590 350.354,194.340 350.354 C 86.725 350.354,96.901 350.487,91.627 349.008 C 90.719 348.753,89.658 348.462,89.269 348.361 C 88.346 348.121,83.812 346.598,82.901 346.223 C 82.020 345.860,81.584 345.681,79.953 345.012 C 57.392 335.752,37.687 313.622,31.369 290.448 C 29.498 283.587,28.723 279.504,28.301 274.292 C 27.945 269.891,28.117 96.256,28.480 94.222 C 28.618 93.443,28.900 91.798,29.106 90.566 C 29.586 87.694,30.316 84.419,31.157 81.368 C 31.412 80.443,32.902 76.104,34.073 72.877 C 37.952 62.192,48.258 47.934,57.890 39.929 C 59.063 38.954,60.284 37.937,60.602 37.670 C 63.737 35.038,71.348 30.249,75.825 28.092 C 77.252 27.405,78.599 26.750,78.818 26.636 C 81.269 25.364,90.934 22.096,92.925 21.867 C 95.974 21.515,296.404 21.840,297.288 22.198 M97.052 150.697 C 91.982 151.060,87.676 152.323,82.868 154.859 C 81.761 155.443,80.242 156.339,79.491 156.852 C 77.369 158.301,77.383 158.315,77.306 154.564 L 77.241 151.344 75.118 151.378 C 73.950 151.396,69.254 151.594,64.682 151.818 L 56.368 152.225 56.368 197.695 L 56.368 243.165 67.158 243.104 L 77.948 243.042 78.008 208.577 C 78.064 176.013,78.090 174.104,78.480 173.984 C 78.706 173.913,79.634 173.595,80.542 173.276 C 92.531 169.061,104.551 171.148,107.696 177.992 C 109.657 182.260,109.511 179.547,109.603 213.269 L 109.685 243.165 120.350 243.104 L 131.014 243.042 131.084 213.561 C 131.168 177.979,130.953 173.399,128.996 168.986 C 128.881 168.726,128.572 167.955,128.310 167.271 C 123.819 155.559,112.555 149.587,97.052 150.697 M210.045 151.616 C 209.977 151.727,210.023 152.125,210.149 152.501 C 210.275 152.877,210.745 154.723,211.194 156.604 C 211.643 158.485,212.646 162.624,213.421 165.802 C 214.197 168.980,215.369 173.809,216.027 176.533 C 216.685 179.257,217.326 181.857,217.452 182.311 C 217.578 182.765,218.055 184.729,218.512 186.675 C 218.969 188.620,219.448 190.584,219.575 191.038 C 219.703 191.492,220.180 193.455,220.635 195.401 C 221.091 197.347,221.560 199.257,221.679 199.646 C 221.798 200.035,221.966 200.725,222.052 201.179 C 222.138 201.633,222.305 202.323,222.424 202.712 C 222.542 203.101,223.019 205.012,223.484 206.958 C 225.042 213.474,226.434 219.210,226.775 220.519 C 226.960 221.232,227.647 224.045,228.300 226.769 C 228.953 229.493,229.587 232.093,229.710 232.547 C 229.832 233.001,230.160 234.381,230.439 235.613 C 230.717 236.846,231.034 238.119,231.142 238.443 C 231.250 238.768,231.405 239.404,231.486 239.858 C 231.567 240.313,231.724 240.949,231.835 241.274 C 231.946 241.598,232.101 242.155,232.179 242.512 L 232.320 243.160 246.333 243.160 C 259.475 243.160,260.353 243.135,260.466 242.748 C 260.531 242.521,261.071 240.690,261.664 238.679 C 262.257 236.669,262.914 234.440,263.123 233.726 C 263.333 233.013,263.633 232.005,263.791 231.486 C 263.949 230.967,264.265 229.906,264.493 229.127 C 264.721 228.349,265.040 227.288,265.201 226.769 C 265.362 226.250,265.681 225.189,265.912 224.410 C 266.142 223.632,266.476 222.518,266.654 221.934 C 266.832 221.350,267.301 219.758,267.697 218.396 C 268.093 217.034,268.560 215.442,268.734 214.858 C 268.909 214.275,269.283 213.001,269.567 212.028 C 269.850 211.055,270.173 209.994,270.283 209.670 C 270.393 209.346,270.712 208.284,270.991 207.311 C 271.269 206.338,271.588 205.277,271.698 204.953 C 271.809 204.629,272.127 203.567,272.406 202.594 C 272.684 201.621,273.003 200.560,273.113 200.236 C 273.223 199.912,273.709 198.267,274.194 196.580 C 275.547 191.870,275.735 191.878,276.942 196.698 C 277.898 200.521,279.431 206.530,281.604 214.976 C 282.405 218.090,283.201 221.221,283.372 221.934 C 283.544 222.647,284.181 225.142,284.789 227.476 C 285.397 229.811,286.036 232.305,286.209 233.019 C 287.145 236.882,288.671 242.720,288.797 242.925 C 288.892 243.078,294.061 243.160,303.520 243.160 L 318.098 243.160 318.351 242.040 C 318.490 241.424,318.762 240.283,318.957 239.505 C 319.151 238.726,319.422 237.612,319.559 237.028 C 319.696 236.445,319.914 235.596,320.043 235.142 C 320.172 234.688,321.289 230.177,322.525 225.118 C 323.761 220.059,324.929 215.336,325.119 214.623 C 325.310 213.909,326.635 208.550,328.065 202.712 C 329.496 196.875,330.771 191.728,330.900 191.274 C 331.029 190.820,331.247 189.971,331.384 189.387 C 331.521 188.803,331.786 187.715,331.972 186.969 C 332.159 186.223,332.464 185.003,332.650 184.257 C 332.837 183.511,333.101 182.423,333.238 181.840 C 333.375 181.256,333.593 180.407,333.721 179.953 C 333.849 179.499,334.968 174.988,336.207 169.929 C 337.447 164.870,338.613 160.147,338.798 159.434 C 340.032 154.678,340.415 153.079,340.509 152.300 L 340.616 151.415 329.520 151.415 C 323.417 151.415,318.370 151.502,318.304 151.609 C 318.238 151.716,318.076 152.432,317.943 153.201 C 317.811 153.970,317.542 155.448,317.346 156.486 C 317.151 157.524,316.774 159.540,316.509 160.967 C 315.790 164.850,315.317 167.383,314.969 169.222 C 314.798 170.130,314.479 171.828,314.262 172.995 C 314.044 174.163,313.716 175.914,313.531 176.887 C 313.347 177.860,313.031 179.558,312.830 180.660 C 312.629 181.763,312.324 183.408,312.153 184.316 C 311.982 185.224,311.663 186.922,311.446 188.090 C 311.228 189.257,310.909 190.955,310.738 191.863 C 310.567 192.771,310.248 194.469,310.030 195.637 C 309.813 196.804,309.494 198.502,309.323 199.410 C 309.152 200.318,308.833 202.017,308.615 203.184 C 308.397 204.351,308.079 206.050,307.907 206.958 C 307.735 207.866,307.477 209.298,307.332 210.142 C 307.188 210.985,306.969 212.152,306.846 212.736 C 306.723 213.320,306.400 215.018,306.129 216.509 C 305.858 218.001,305.490 219.965,305.312 220.873 C 305.133 221.781,304.857 223.197,304.697 224.019 C 304.190 226.638,303.416 226.256,302.623 222.995 C 302.339 221.828,301.963 220.342,301.787 219.693 C 301.185 217.468,299.722 211.909,299.056 209.316 C 298.690 207.889,298.063 205.475,297.662 203.950 C 297.262 202.426,296.616 199.959,296.226 198.467 C 295.837 196.975,295.191 194.508,294.791 192.983 C 294.390 191.459,293.751 189.019,293.371 187.560 C 291.304 179.632,290.019 174.714,289.505 172.759 C 288.696 169.688,287.399 164.726,286.791 162.382 C 286.420 160.955,285.778 158.514,285.364 156.958 C 284.949 155.401,284.505 153.650,284.377 153.066 C 283.987 151.289,284.793 151.404,273.141 151.472 C 263.946 151.525,262.624 151.578,262.667 151.887 C 262.694 152.081,262.870 152.824,263.058 153.538 C 263.246 154.251,263.789 156.321,264.265 158.137 C 264.741 159.953,265.451 162.659,265.842 164.151 C 266.234 165.643,266.641 167.219,266.748 167.654 C 266.925 168.373,265.932 172.389,264.873 175.236 C 264.753 175.560,264.267 177.099,263.795 178.656 C 263.322 180.212,262.844 181.751,262.733 182.075 C 262.622 182.400,262.143 183.939,261.667 185.495 C 261.192 187.052,260.560 189.068,260.262 189.976 C 259.965 190.884,259.486 192.423,259.198 193.396 C 258.910 194.369,258.431 195.908,258.133 196.816 C 257.835 197.724,257.358 199.263,257.072 200.236 C 256.786 201.209,256.309 202.748,256.011 203.656 C 255.714 204.564,255.079 206.580,254.600 208.137 C 254.121 209.693,253.429 211.922,253.061 213.090 C 252.693 214.257,251.898 216.804,251.294 218.750 C 249.374 224.939,249.136 225.586,248.750 225.663 C 248.214 225.769,247.950 225.118,247.520 222.622 C 247.309 221.400,246.991 219.605,246.813 218.632 C 246.635 217.659,246.324 215.935,246.122 214.800 C 245.728 212.587,245.205 209.689,244.683 206.840 C 244.505 205.867,244.195 204.142,243.993 203.008 C 243.791 201.873,243.457 200.016,243.252 198.880 C 243.046 197.745,242.738 196.020,242.568 195.047 C 242.397 194.074,242.088 192.350,241.880 191.215 C 241.673 190.080,241.348 188.237,241.159 187.118 C 240.970 185.999,240.761 184.911,240.694 184.700 C 240.628 184.489,240.475 183.679,240.354 182.901 C 240.232 182.123,239.964 180.557,239.757 179.423 C 239.550 178.288,239.226 176.484,239.037 175.413 C 238.679 173.386,237.956 169.395,237.359 166.156 C 237.167 165.118,236.906 163.579,236.779 162.736 C 236.651 161.893,236.492 161.030,236.427 160.819 C 236.315 160.461,235.905 158.136,235.370 154.835 C 235.243 154.057,235.021 152.969,234.874 152.417 L 234.609 151.415 222.389 151.415 C 215.668 151.415,210.113 151.506,210.045 151.616 "
       stroke="none"
       fill="#fbfbfb"
       fill-rule="evenodd"
       style="fill:none" />
    <path
       id="path1"
       d="M92.217 22.298 C 85.752 23.879,77.521 27.197,71.846 30.510 C 70.955 31.030,69.925 31.622,69.557 31.825 C 62.252 35.855,52.418 44.545,46.456 52.241 C 45.752 53.149,45.121 53.945,45.053 54.009 C 43.044 55.927,35.518 69.272,34.546 72.642 C 34.453 72.966,34.300 73.337,34.208 73.467 C 34.115 73.597,33.801 74.393,33.510 75.236 C 33.219 76.079,32.897 76.932,32.794 77.130 C 32.691 77.329,32.527 77.856,32.429 78.302 C 32.331 78.747,32.166 79.275,32.062 79.473 C 31.957 79.672,31.751 80.313,31.602 80.896 C 31.454 81.480,31.173 82.541,30.976 83.255 C 29.583 88.321,28.675 94.260,28.309 100.708 C 28.022 105.772,28.019 265.294,28.306 270.519 C 28.771 278.983,29.963 285.272,32.665 293.514 C 33.400 295.757,33.604 296.303,34.349 298.031 C 34.526 298.440,34.670 298.830,34.670 298.898 C 34.670 299.520,38.663 307.391,40.404 310.200 C 40.826 310.881,41.486 311.956,41.871 312.589 C 45.189 318.042,52.618 326.484,58.262 331.215 C 62.253 334.560,68.445 338.968,70.490 339.918 C 70.701 340.016,71.509 340.464,72.288 340.915 C 74.820 342.380,79.478 344.599,81.722 345.410 C 82.370 345.644,83.007 345.906,83.137 345.992 C 83.267 346.078,84.116 346.385,85.024 346.673 C 85.932 346.962,86.887 347.290,87.146 347.402 C 87.919 347.734,92.471 348.988,95.401 349.675 C 97.230 350.104,100.246 350.118,194.340 350.118 L 291.392 350.118 294.927 349.209 C 302.871 347.168,310.828 344.061,315.939 341.006 C 316.727 340.534,317.842 339.894,318.415 339.583 C 329.996 333.300,342.548 320.258,349.815 306.958 C 351.227 304.372,353.318 299.964,354.009 298.113 C 354.276 297.400,354.589 296.604,354.706 296.344 C 354.951 295.797,356.200 292.067,356.601 290.684 C 356.751 290.165,357.033 289.210,357.228 288.561 C 357.957 286.134,358.803 281.965,359.214 278.774 C 359.356 277.671,359.593 276.344,359.740 275.825 C 360.104 274.544,360.269 102.103,359.910 98.113 C 359.391 92.339,358.369 86.479,357.194 82.547 C 356.981 81.834,356.723 80.932,356.621 80.542 C 356.302 79.332,354.953 75.391,354.591 74.611 C 354.401 74.202,354.245 73.749,354.245 73.605 C 354.245 73.461,354.144 73.158,354.021 72.933 C 353.897 72.708,353.620 72.099,353.404 71.580 C 350.499 64.606,344.398 54.754,339.775 49.574 C 332.682 41.627,326.687 36.557,318.750 31.797 C 314.366 29.168,311.723 27.858,306.014 25.488 C 304.640 24.918,303.438 24.488,301.415 23.845 C 300.183 23.454,298.432 22.890,297.524 22.593 L 295.873 22.052 194.693 22.016 C 110.651 21.987,93.294 22.035,92.217 22.298 M177.730 102.370 C 191.237 103.669,198.959 109.989,200.807 121.256 C 202.028 128.701,200.183 136.060,195.554 142.207 C 191.817 147.170,189.100 149.262,179.599 154.485 C 172.347 158.472,167.007 163.636,166.983 166.685 C 166.982 166.916,170.814 166.991,184.965 167.039 L 202.948 167.099 202.948 174.528 L 202.948 181.958 176.136 182.018 C 150.751 182.074,149.318 182.055,149.202 181.664 C 149.135 181.436,148.968 179.552,148.831 177.476 C 148.693 175.401,148.460 172.429,148.313 170.873 C 147.411 161.372,154.504 151.614,168.278 143.404 C 177.473 137.923,180.107 135.512,181.371 131.419 C 182.977 126.220,180.508 121.722,175.200 120.179 C 170.854 118.915,161.220 119.416,154.555 121.252 C 153.542 121.531,152.472 121.811,152.179 121.875 L 151.645 121.990 151.707 113.433 L 151.769 104.876 153.991 104.331 C 161.206 102.561,171.164 101.739,177.730 102.370 M108.019 150.807 C 119.925 153.327,126.821 159.797,130.031 171.462 C 131.304 176.086,131.245 174.311,131.317 210.076 L 131.383 243.147 130.845 243.278 C 130.549 243.350,125.637 243.380,119.929 243.344 L 109.552 243.278 109.415 213.561 C 109.281 184.574,109.265 183.796,108.791 181.896 C 107.066 174.986,103.169 172.017,95.235 171.568 C 89.781 171.259,80.526 172.852,78.302 174.481 C 78.237 174.529,78.131 190.027,78.066 208.923 L 77.948 243.278 67.099 243.278 L 56.250 243.278 56.190 197.772 C 56.158 172.743,56.220 152.176,56.329 152.067 C 56.438 151.958,58.853 151.769,61.695 151.647 C 64.538 151.524,69.193 151.313,72.040 151.177 C 78.466 150.869,77.803 150.507,77.882 154.371 L 77.948 157.582 78.899 156.893 C 80.911 155.434,86.945 152.358,87.794 152.358 C 87.969 152.358,88.214 152.264,88.337 152.147 C 88.663 151.841,92.809 150.892,95.637 150.477 C 97.840 150.154,105.953 150.370,108.019 150.807 M234.816 151.360 C 234.962 151.455,235.137 151.904,235.206 152.358 C 235.347 153.287,235.915 156.484,236.442 159.316 C 236.773 161.092,237.129 163.074,237.860 167.217 C 238.207 169.179,238.761 172.244,239.288 175.118 C 239.648 177.083,240.045 179.321,240.661 182.871 C 240.861 184.022,241.078 185.137,241.144 185.348 C 241.209 185.559,241.367 186.421,241.494 187.264 C 241.622 188.107,241.949 190.018,242.222 191.509 C 242.495 193.001,242.873 195.071,243.063 196.108 C 243.253 197.146,243.563 198.871,243.753 199.942 C 243.942 201.012,244.267 202.816,244.475 203.951 C 244.870 206.113,245.229 208.130,245.851 211.675 C 246.056 212.842,246.392 214.699,246.598 215.802 C 247.236 219.212,247.635 221.505,247.922 223.408 C 248.325 226.091,248.749 225.927,249.749 222.700 C 250.182 221.306,250.821 219.263,251.170 218.160 C 251.518 217.058,252.044 215.360,252.338 214.387 C 252.631 213.414,252.955 212.406,253.057 212.146 C 253.228 211.712,253.608 210.471,254.612 207.075 C 254.823 206.362,255.084 205.566,255.193 205.307 C 255.302 205.047,255.620 204.039,255.900 203.066 C 256.180 202.093,256.550 200.873,256.722 200.354 C 256.894 199.835,257.374 198.296,257.789 196.934 C 258.204 195.572,258.683 194.033,258.854 193.514 C 259.026 192.995,259.477 191.563,259.857 190.330 C 260.238 189.098,260.895 186.975,261.319 185.613 C 261.742 184.251,262.300 182.447,262.559 181.604 C 262.818 180.761,263.270 179.328,263.564 178.420 C 263.859 177.512,264.331 175.973,264.613 175.000 C 264.896 174.027,265.213 173.019,265.317 172.759 C 266.648 169.448,266.696 168.394,265.687 164.741 C 265.472 163.962,265.151 162.742,264.975 162.028 C 264.798 161.315,264.333 159.511,263.942 158.019 C 263.551 156.527,263.014 154.473,262.749 153.454 C 262.484 152.435,262.326 151.507,262.397 151.390 C 262.471 151.271,267.185 151.179,273.237 151.179 C 285.474 151.179,284.138 150.902,284.800 153.578 C 285.003 154.399,285.328 155.654,285.521 156.368 C 285.715 157.081,286.020 158.249,286.198 158.962 C 286.376 159.676,286.695 160.896,286.906 161.675 C 287.116 162.453,287.437 163.673,287.618 164.387 C 287.799 165.100,288.120 166.321,288.330 167.099 C 288.541 167.877,288.859 169.098,289.038 169.811 C 289.216 170.525,289.537 171.745,289.751 172.524 C 289.964 173.302,290.284 174.522,290.462 175.236 C 290.639 175.949,290.938 177.117,291.126 177.830 C 291.314 178.544,291.788 180.348,292.178 181.840 C 293.676 187.562,294.632 191.204,294.963 192.453 C 295.153 193.166,295.454 194.334,295.632 195.047 C 295.810 195.761,296.129 196.981,296.340 197.759 C 296.550 198.538,296.869 199.758,297.047 200.472 C 297.225 201.185,297.544 202.406,297.755 203.184 C 297.965 203.962,298.286 205.183,298.467 205.896 C 298.648 206.610,298.969 207.830,299.179 208.608 C 299.390 209.387,299.708 210.607,299.887 211.321 C 300.065 212.034,300.386 213.255,300.600 214.033 C 300.813 214.811,301.133 216.032,301.311 216.745 C 301.488 217.459,301.790 218.626,301.982 219.340 C 302.174 220.053,302.552 221.486,302.821 222.524 C 303.515 225.192,303.533 225.236,303.903 225.236 C 304.259 225.236,304.326 225.021,304.712 222.642 C 304.849 221.798,305.123 220.259,305.322 219.222 C 305.521 218.184,305.829 216.539,306.006 215.566 C 306.308 213.905,306.705 211.775,307.436 207.901 C 307.607 206.993,307.926 205.295,308.144 204.127 C 308.362 202.960,308.680 201.262,308.851 200.354 C 309.022 199.446,309.327 197.801,309.528 196.698 C 309.730 195.596,310.045 193.897,310.229 192.925 C 310.590 191.021,311.030 188.663,311.792 184.552 C 312.918 178.479,313.681 174.421,314.054 172.524 C 314.233 171.616,314.488 170.183,314.621 169.340 C 314.755 168.496,314.924 167.647,314.998 167.453 C 315.072 167.258,315.285 166.197,315.470 165.094 C 315.655 163.992,315.957 162.294,316.142 161.321 C 316.464 159.619,316.848 157.545,317.539 153.774 C 317.718 152.801,317.942 151.819,318.037 151.592 C 318.234 151.123,340.623 150.935,340.910 151.400 C 340.986 151.521,340.932 152.079,340.792 152.638 C 340.651 153.198,340.384 154.266,340.197 155.012 C 340.011 155.758,339.705 156.978,339.517 157.724 C 338.810 160.533,338.412 162.179,338.194 163.195 C 338.070 163.772,337.863 164.568,337.735 164.964 C 337.606 165.360,337.128 167.276,336.673 169.222 C 336.218 171.167,335.739 173.131,335.610 173.585 C 335.480 174.039,335.262 174.888,335.125 175.472 C 334.988 176.055,334.730 177.117,334.552 177.830 C 334.374 178.544,334.116 179.605,333.979 180.189 C 333.842 180.772,333.624 181.621,333.495 182.075 C 333.366 182.529,332.038 187.889,330.543 193.986 C 329.049 200.083,327.720 205.442,327.591 205.896 C 327.461 206.350,327.243 207.199,327.106 207.783 C 326.969 208.367,326.710 209.428,326.530 210.142 C 326.105 211.832,325.586 213.906,325.130 215.743 C 324.929 216.554,324.611 217.827,324.423 218.573 C 324.235 219.319,323.922 220.619,323.726 221.462 C 323.531 222.305,323.148 223.844,322.876 224.882 C 322.604 225.920,322.287 227.193,322.170 227.712 C 321.886 228.981,320.921 232.882,320.509 234.434 C 320.388 234.888,319.869 236.985,319.355 239.095 C 318.841 241.204,318.356 243.035,318.277 243.163 C 318.098 243.452,289.177 243.480,288.723 243.193 C 288.553 243.085,287.951 241.149,287.384 238.892 C 286.818 236.635,285.808 232.665,285.141 230.071 C 284.473 227.476,283.775 224.744,283.591 223.998 C 283.406 223.252,283.103 222.031,282.918 221.285 C 282.733 220.540,282.409 219.292,282.198 218.514 C 281.775 216.951,281.523 215.960,280.086 210.200 C 279.900 209.455,279.413 207.571,279.005 206.014 C 278.596 204.458,278.103 202.547,277.910 201.769 C 277.051 198.305,276.886 197.652,276.424 195.873 C 275.638 192.849,275.700 192.937,275.225 194.188 C 274.993 194.801,274.731 195.722,274.645 196.235 C 274.558 196.748,274.403 197.220,274.299 197.284 C 274.196 197.348,274.040 197.876,273.952 198.459 C 273.865 199.041,273.694 199.579,273.571 199.655 C 273.449 199.730,273.349 199.994,273.349 200.242 C 273.349 200.489,273.201 201.146,273.020 201.702 C 272.839 202.257,272.459 203.508,272.177 204.481 C 271.894 205.454,271.573 206.515,271.462 206.840 C 271.352 207.164,271.033 208.225,270.755 209.198 C 270.476 210.171,270.158 211.232,270.047 211.557 C 269.937 211.881,269.631 212.889,269.368 213.797 C 269.104 214.705,268.083 218.154,267.099 221.462 C 266.115 224.770,265.094 228.219,264.831 229.127 C 264.567 230.035,264.261 231.044,264.151 231.368 C 264.041 231.692,263.722 232.754,263.443 233.726 C 263.165 234.699,262.848 235.761,262.740 236.085 C 262.514 236.765,262.061 238.285,261.335 240.802 C 261.054 241.775,260.739 242.730,260.634 242.925 C 260.446 243.275,233.778 243.621,232.411 243.290 C 232.038 243.200,231.858 242.873,231.661 241.928 C 231.519 241.244,231.230 239.994,231.019 239.151 C 230.513 237.128,230.090 235.388,229.612 233.373 C 229.396 232.465,229.061 231.085,228.867 230.307 C 228.210 227.679,227.873 226.303,227.509 224.764 C 227.042 222.790,226.679 221.318,226.407 220.283 C 226.287 219.829,225.810 217.866,225.346 215.920 C 224.882 213.974,224.360 211.851,224.187 211.203 C 223.908 210.155,222.796 205.576,220.152 194.575 C 219.700 192.695,219.225 190.784,219.097 190.330 C 218.865 189.504,218.650 188.613,218.044 185.967 C 217.736 184.623,217.383 183.180,216.615 180.130 C 216.119 178.159,215.661 176.288,215.216 174.410 C 215.001 173.502,214.679 172.176,214.500 171.462 C 214.054 169.678,213.553 167.624,213.122 165.802 C 212.630 163.722,212.281 162.307,212.016 161.321 C 211.047 157.704,209.676 151.596,209.791 151.409 C 209.959 151.139,234.406 151.091,234.816 151.360 "
       stroke="none"
       fill="#144474"
       fill-rule="evenodd"
       style="fill:#01689b;fill-opacity:1;stroke:none;stroke-opacity:1" />
    <path
       id="path2"
       d="M166.509 102.390 C 163.134 102.620,157.246 103.533,153.991 104.331 L 151.769 104.876 151.707 113.433 L 151.645 121.990 152.179 121.875 C 152.472 121.811,153.542 121.531,154.555 121.252 C 161.220 119.416,170.854 118.915,175.200 120.179 C 180.508 121.722,182.977 126.220,181.371 131.419 C 180.107 135.512,177.473 137.923,168.278 143.404 C 154.504 151.614,147.411 161.372,148.313 170.873 C 148.460 172.429,148.693 175.401,148.831 177.476 C 148.968 179.552,149.135 181.436,149.202 181.664 C 149.318 182.055,150.751 182.074,176.136 182.018 L 202.948 181.958 202.948 174.528 L 202.948 167.099 184.965 167.039 C 170.814 166.991,166.982 166.916,166.983 166.685 C 167.007 163.636,172.347 158.472,179.599 154.485 C 189.100 149.262,191.817 147.170,195.554 142.207 C 203.223 132.023,203.048 117.488,195.160 109.530 C 189.271 103.588,180.615 101.432,166.509 102.390 "
       stroke="none"
       fill="#f90405"
       fill-rule="evenodd"
       style="fill:#d52b1e;fill-opacity:1;stroke:#d52b1e;stroke-opacity:1" />
    <path
       id="path3"
       d="M143.790 21.875 C 171.441 21.908,216.760 21.908,244.497 21.875 C 272.235 21.842,249.611 21.815,194.222 21.815 C 138.833 21.815,116.138 21.842,143.790 21.875 M91.392 22.170 C 91.094 22.298,91.051 22.373,91.274 22.373 C 91.468 22.373,91.840 22.281,92.099 22.170 C 92.396 22.042,92.440 21.967,92.217 21.967 C 92.022 21.967,91.651 22.058,91.392 22.170 M296.344 22.170 C 296.604 22.281,296.975 22.373,297.170 22.373 C 297.393 22.373,297.349 22.298,297.052 22.170 C 296.792 22.058,296.421 21.967,296.226 21.967 C 296.003 21.967,296.047 22.042,296.344 22.170 M298.703 22.877 C 298.962 22.989,299.334 23.080,299.528 23.080 C 299.751 23.080,299.708 23.005,299.410 22.877 C 299.151 22.766,298.779 22.675,298.585 22.675 C 298.362 22.675,298.406 22.750,298.703 22.877 M84.316 24.419 C 83.726 24.703,83.707 24.735,84.198 24.615 C 84.866 24.452,85.618 24.069,85.259 24.074 C 85.130 24.076,84.705 24.231,84.316 24.419 M306.840 25.608 C 306.840 25.767,308.065 26.212,308.182 26.095 C 308.235 26.042,307.955 25.885,307.559 25.747 C 307.163 25.609,306.840 25.546,306.840 25.608 M62.164 36.445 C 61.396 37.025,60.843 37.500,60.936 37.500 C 61.125 37.500,63.679 35.607,63.679 35.467 C 63.679 35.311,63.590 35.368,62.164 36.445 M329.297 39.041 C 329.650 39.412,329.981 39.668,330.033 39.610 C 330.084 39.552,329.796 39.249,329.391 38.935 L 328.656 38.366 329.297 39.041 M55.416 42.158 L 54.127 43.514 55.483 42.225 C 56.229 41.516,56.840 40.906,56.840 40.869 C 56.840 40.694,56.614 40.898,55.416 42.158 M335.610 44.929 C 337.611 47.005,339.352 48.809,339.478 48.939 C 339.604 49.068,339.377 48.750,338.973 48.231 C 338.570 47.712,336.830 45.908,335.105 44.222 L 331.970 41.156 335.610 44.929 M50.362 47.136 L 49.190 48.467 50.538 47.178 C 51.280 46.469,51.887 45.859,51.887 45.822 C 51.887 45.547,51.363 45.999,50.362 47.136 M48.452 49.351 L 47.759 50.118 48.526 49.425 C 49.240 48.780,49.401 48.585,49.219 48.585 C 49.178 48.585,48.833 48.930,48.452 49.351 M46.698 51.415 C 46.155 52.064,45.764 52.594,45.829 52.594 C 45.894 52.594,46.391 52.064,46.934 51.415 C 47.477 50.767,47.868 50.236,47.803 50.236 C 47.738 50.236,47.241 50.767,46.698 51.415 M342.710 53.007 C 343.519 54.077,344.223 54.953,344.275 54.953 C 344.424 54.953,343.000 53.040,342.079 52.005 C 341.618 51.486,341.902 51.937,342.710 53.007 M43.396 55.778 C 42.995 56.362,42.719 56.840,42.784 56.840 C 42.849 56.840,43.230 56.362,43.632 55.778 C 44.034 55.195,44.309 54.717,44.244 54.717 C 44.180 54.717,43.798 55.195,43.396 55.778 M41.654 58.373 C 41.445 58.697,41.102 59.254,40.892 59.611 L 40.510 60.259 40.985 59.685 C 41.545 59.007,42.288 57.783,42.140 57.783 C 42.082 57.783,41.864 58.048,41.654 58.373 M38.325 63.915 C 37.997 64.564,37.781 65.094,37.846 65.094 C 37.911 65.094,38.233 64.564,38.561 63.915 C 38.890 63.267,39.106 62.736,39.041 62.736 C 38.976 62.736,38.654 63.267,38.325 63.915 M356.401 79.245 C 356.401 79.440,356.492 79.811,356.604 80.071 C 356.732 80.368,356.806 80.412,356.806 80.189 C 356.806 79.994,356.715 79.623,356.604 79.363 C 356.476 79.066,356.401 79.022,356.401 79.245 M30.807 82.438 C 30.727 82.649,30.669 82.999,30.681 83.215 C 30.692 83.431,30.794 83.295,30.909 82.913 C 31.131 82.168,31.052 81.800,30.807 82.438 M30.100 85.269 C 30.019 85.479,29.962 85.829,29.973 86.045 C 29.984 86.262,30.087 86.126,30.201 85.743 C 30.423 84.999,30.345 84.630,30.100 85.269 M29.396 88.493 C 29.317 88.790,29.261 89.245,29.272 89.505 C 29.283 89.764,29.390 89.562,29.509 89.056 C 29.738 88.076,29.640 87.583,29.396 88.493 M359.493 92.807 C 359.496 93.325,359.544 93.510,359.601 93.217 C 359.657 92.923,359.655 92.499,359.596 92.273 C 359.537 92.048,359.491 92.288,359.493 92.807 M28.597 93.986 C 28.600 94.505,28.648 94.689,28.705 94.396 C 28.761 94.102,28.759 93.678,28.700 93.452 C 28.641 93.227,28.595 93.467,28.597 93.986 M359.965 97.052 C 359.968 97.571,360.016 97.755,360.072 97.462 C 360.129 97.168,360.127 96.744,360.068 96.518 C 360.009 96.293,359.963 96.533,359.965 97.052 M360.200 185.048 C 360.168 232.927,360.092 272.780,360.033 273.609 L 359.924 275.118 360.150 273.703 C 360.293 272.812,360.355 239.991,360.318 185.142 L 360.259 97.995 360.200 185.048 M28.126 99.175 C 28.128 99.693,28.176 99.878,28.233 99.585 C 28.289 99.291,28.287 98.867,28.228 98.641 C 28.169 98.416,28.123 98.656,28.126 99.175 M100.415 150.403 C 100.709 150.459,101.133 150.457,101.359 150.398 C 101.584 150.339,101.344 150.293,100.825 150.295 C 100.307 150.298,100.122 150.346,100.415 150.403 M97.111 150.642 C 97.532 150.695,98.222 150.695,98.644 150.642 C 99.065 150.590,98.721 150.547,97.877 150.547 C 97.034 150.547,96.689 150.590,97.111 150.642 M102.771 150.642 C 103.193 150.695,103.883 150.695,104.304 150.642 C 104.726 150.590,104.381 150.547,103.538 150.547 C 102.695 150.547,102.350 150.590,102.771 150.642 M92.453 151.179 C 91.986 151.329,91.961 151.368,92.335 151.368 C 92.594 151.368,93.072 151.283,93.396 151.179 C 93.863 151.030,93.888 150.990,93.514 150.990 C 93.255 150.990,92.777 151.075,92.453 151.179 M108.137 151.179 C 108.396 151.291,108.821 151.379,109.080 151.375 C 109.459 151.369,109.436 151.331,108.962 151.179 C 108.156 150.921,107.536 150.921,108.137 151.179 M73.887 151.353 C 74.507 151.402,75.462 151.401,76.009 151.352 C 76.557 151.302,76.050 151.262,74.882 151.263 C 73.715 151.264,73.267 151.304,73.887 151.353 M77.312 154.481 C 77.351 156.297,77.457 157.783,77.548 157.783 C 77.638 157.784,77.680 156.298,77.641 154.482 C 77.602 152.665,77.495 151.179,77.405 151.179 C 77.315 151.179,77.273 152.665,77.312 154.481 M68.223 151.584 C 68.581 151.639,69.112 151.637,69.402 151.581 C 69.692 151.525,69.399 151.481,68.750 151.483 C 68.101 151.484,67.864 151.530,68.223 151.584 M234.703 151.651 C 234.703 151.846,234.794 152.217,234.906 152.476 C 235.033 152.774,235.108 152.817,235.108 152.594 C 235.108 152.400,235.017 152.028,234.906 151.769 C 234.778 151.472,234.703 151.428,234.703 151.651 M59.080 151.887 L 56.958 152.034 58.726 152.049 C 59.699 152.058,61.610 151.990,62.972 151.897 L 65.448 151.730 63.325 151.735 C 62.158 151.738,60.248 151.806,59.080 151.887 M89.505 151.887 C 89.207 152.015,89.164 152.089,89.387 152.089 C 89.581 152.089,89.953 151.998,90.212 151.887 C 90.510 151.759,90.553 151.684,90.330 151.684 C 90.136 151.684,89.764 151.775,89.505 151.887 M210.050 152.712 C 210.244 153.579,210.379 153.768,210.374 153.164 C 210.372 152.916,210.262 152.553,210.131 152.358 C 209.956 152.100,209.934 152.196,210.050 152.712 M262.776 152.948 C 262.772 153.208,262.860 153.632,262.972 153.892 C 263.230 154.493,263.230 153.872,262.972 153.066 C 262.820 152.592,262.782 152.569,262.776 152.948 M284.467 153.538 C 284.467 153.732,284.558 154.104,284.670 154.363 C 284.798 154.661,284.873 154.704,284.873 154.481 C 284.873 154.287,284.781 153.915,284.670 153.656 C 284.542 153.358,284.467 153.315,284.467 153.538 M317.584 154.140 C 317.495 154.614,317.470 155.048,317.527 155.106 C 317.585 155.164,317.705 154.823,317.794 154.350 C 317.882 153.877,317.908 153.442,317.850 153.385 C 317.792 153.327,317.673 153.667,317.584 154.140 M339.993 154.380 C 339.907 154.726,339.881 155.054,339.937 155.110 C 339.992 155.165,340.109 154.928,340.195 154.582 C 340.282 154.237,340.308 153.908,340.252 153.853 C 340.196 153.797,340.080 154.034,339.993 154.380 M263.477 155.660 C 263.477 155.855,263.568 156.226,263.679 156.486 C 263.807 156.783,263.882 156.827,263.882 156.604 C 263.882 156.409,263.791 156.038,263.679 155.778 C 263.551 155.481,263.477 155.437,263.477 155.660 M210.889 156.014 C 210.885 156.274,210.973 156.698,211.085 156.958 C 211.343 157.559,211.343 156.938,211.085 156.132 C 210.933 155.658,210.895 155.635,210.889 156.014 M339.286 157.210 C 339.199 157.556,339.173 157.884,339.229 157.940 C 339.285 157.995,339.401 157.758,339.488 157.412 C 339.575 157.067,339.600 156.738,339.545 156.683 C 339.489 156.627,339.372 156.865,339.286 157.210 M316.876 157.914 C 316.788 158.387,316.762 158.822,316.820 158.879 C 316.877 158.937,316.997 158.597,317.086 158.124 C 317.175 157.650,317.200 157.216,317.143 157.158 C 317.085 157.101,316.965 157.441,316.876 157.914 M264.191 158.373 C 264.187 158.632,264.275 159.057,264.387 159.316 C 264.645 159.917,264.645 159.297,264.387 158.491 C 264.235 158.017,264.197 157.993,264.191 158.373 M211.597 158.844 C 211.593 159.104,211.681 159.528,211.792 159.788 C 212.051 160.389,212.051 159.769,211.792 158.962 C 211.641 158.488,211.602 158.465,211.597 158.844 M285.882 158.962 C 285.882 159.157,285.973 159.528,286.085 159.788 C 286.213 160.085,286.288 160.129,286.288 159.906 C 286.288 159.711,286.196 159.340,286.085 159.080 C 285.957 158.783,285.882 158.739,285.882 158.962 M236.132 159.316 C 236.132 159.575,236.217 160.053,236.321 160.377 C 236.470 160.844,236.510 160.869,236.510 160.495 C 236.510 160.236,236.425 159.758,236.321 159.434 C 236.171 158.967,236.132 158.943,236.132 159.316 M124.077 160.051 C 124.390 160.456,124.694 160.745,124.752 160.693 C 124.810 160.641,124.553 160.310,124.182 159.957 L 123.508 159.316 124.077 160.051 M338.578 160.040 C 338.491 160.386,338.466 160.714,338.522 160.770 C 338.577 160.826,338.694 160.588,338.780 160.243 C 338.867 159.897,338.893 159.569,338.837 159.513 C 338.781 159.457,338.665 159.695,338.578 160.040 M264.892 161.085 C 264.892 161.279,264.983 161.651,265.094 161.910 C 265.222 162.208,265.297 162.251,265.297 162.028 C 265.297 161.834,265.206 161.462,265.094 161.203 C 264.967 160.906,264.892 160.862,264.892 161.085 M316.156 161.792 C 316.065 162.329,316.040 162.817,316.101 162.878 C 316.161 162.938,316.281 162.545,316.368 162.005 C 316.454 161.464,316.479 160.976,316.423 160.920 C 316.366 160.863,316.246 161.256,316.156 161.792 M286.590 161.557 C 286.590 161.751,286.681 162.123,286.792 162.382 C 286.920 162.679,286.995 162.723,286.995 162.500 C 286.995 162.305,286.904 161.934,286.792 161.675 C 286.665 161.377,286.590 161.334,286.590 161.557 M236.844 163.208 C 236.841 163.532,236.924 164.063,237.028 164.387 C 237.282 165.179,237.282 164.323,237.028 163.325 C 236.867 162.690,236.848 162.678,236.844 163.208 M265.599 163.915 C 265.599 164.110,265.690 164.481,265.802 164.741 C 265.930 165.038,266.005 165.081,266.005 164.858 C 266.005 164.664,265.913 164.292,265.802 164.033 C 265.674 163.736,265.599 163.692,265.599 163.915 M287.297 164.387 C 287.297 164.581,287.389 164.953,287.500 165.212 C 287.628 165.510,287.703 165.553,287.703 165.330 C 287.703 165.136,287.611 164.764,287.500 164.505 C 287.372 164.207,287.297 164.164,287.297 164.387 M213.012 164.741 C 213.008 165.000,213.096 165.425,213.208 165.684 C 213.466 166.285,213.466 165.665,213.208 164.858 C 213.056 164.384,213.017 164.361,213.012 164.741 M315.448 165.566 C 315.357 166.102,315.333 166.591,315.393 166.651 C 315.454 166.712,315.574 166.319,315.660 165.778 C 315.747 165.238,315.771 164.749,315.715 164.693 C 315.659 164.637,315.539 165.030,315.448 165.566 M266.307 166.509 C 266.307 166.704,266.398 167.075,266.509 167.335 C 266.637 167.632,266.712 167.676,266.712 167.453 C 266.712 167.258,266.621 166.887,266.509 166.627 C 266.382 166.330,266.307 166.286,266.307 166.509 M237.551 167.099 C 237.554 167.358,237.637 167.889,237.736 168.278 C 237.898 168.914,237.916 168.926,237.920 168.396 C 237.923 168.072,237.840 167.541,237.736 167.217 C 237.588 166.755,237.548 166.729,237.551 167.099 M288.012 166.981 C 288.024 167.594,288.395 168.600,288.403 168.042 C 288.407 167.783,288.319 167.358,288.208 167.099 C 288.083 166.810,288.008 166.764,288.012 166.981 M213.719 167.571 C 213.716 167.830,213.804 168.255,213.915 168.514 C 214.173 169.115,214.173 168.495,213.915 167.689 C 213.763 167.215,213.725 167.192,213.719 167.571 M128.666 168.219 C 128.754 168.511,128.924 168.854,129.042 168.980 C 129.161 169.107,129.139 168.868,128.993 168.450 C 128.694 167.593,128.418 167.398,128.666 168.219 M336.456 168.767 C 336.369 169.112,336.343 169.441,336.399 169.496 C 336.454 169.552,336.571 169.315,336.658 168.969 C 336.744 168.623,336.770 168.295,336.714 168.239 C 336.659 168.184,336.542 168.421,336.456 168.767 M314.741 169.340 C 314.650 169.876,314.625 170.364,314.686 170.425 C 314.746 170.485,314.866 170.092,314.953 169.552 C 315.039 169.011,315.064 168.523,315.008 168.467 C 314.951 168.410,314.831 168.803,314.741 169.340 M288.712 169.811 C 288.712 170.006,288.804 170.377,288.915 170.637 C 289.043 170.934,289.118 170.978,289.118 170.755 C 289.118 170.560,289.027 170.189,288.915 169.929 C 288.787 169.632,288.712 169.588,288.712 169.811 M129.392 170.401 C 129.476 170.790,129.638 171.268,129.752 171.462 C 129.885 171.689,129.904 171.561,129.806 171.108 C 129.722 170.719,129.560 170.242,129.446 170.047 C 129.313 169.821,129.294 169.948,129.392 170.401 M214.420 170.519 C 214.420 170.713,214.511 171.085,214.623 171.344 C 214.750 171.642,214.825 171.685,214.825 171.462 C 214.825 171.268,214.734 170.896,214.623 170.637 C 214.495 170.339,214.420 170.296,214.420 170.519 M238.259 171.108 C 238.261 171.368,238.344 171.899,238.443 172.288 C 238.605 172.923,238.624 172.935,238.628 172.406 C 238.630 172.081,238.547 171.551,238.443 171.226 C 238.295 170.764,238.256 170.739,238.259 171.108 M335.748 171.597 C 335.661 171.943,335.636 172.271,335.691 172.327 C 335.747 172.382,335.863 172.145,335.950 171.799 C 336.037 171.454,336.062 171.125,336.007 171.070 C 335.951 171.014,335.835 171.251,335.748 171.597 M88.807 171.431 C 88.424 171.513,90.409 171.580,93.219 171.580 C 96.029 171.580,98.147 171.508,97.926 171.420 C 97.423 171.219,89.754 171.229,88.807 171.431 M84.552 172.170 C 84.255 172.298,84.211 172.373,84.434 172.373 C 84.629 172.373,85.000 172.281,85.259 172.170 C 85.557 172.042,85.600 171.967,85.377 171.967 C 85.183 171.967,84.811 172.058,84.552 172.170 M289.427 172.406 C 289.439 173.018,289.810 174.025,289.818 173.467 C 289.822 173.208,289.734 172.783,289.623 172.524 C 289.498 172.235,289.423 172.189,289.427 172.406 M264.993 174.191 C 264.907 174.537,264.881 174.865,264.937 174.921 C 264.992 174.976,265.109 174.739,265.195 174.394 C 265.282 174.048,265.308 173.720,265.252 173.664 C 265.196 173.608,265.080 173.846,264.993 174.191 M105.435 175.118 C 106.146 175.896,106.917 176.798,107.148 177.123 C 107.552 177.691,107.553 177.684,107.154 176.947 C 106.926 176.527,106.155 175.625,105.441 174.943 L 104.143 173.703 105.435 175.118 M335.040 174.427 C 334.954 174.773,334.928 175.101,334.984 175.157 C 335.039 175.212,335.156 174.975,335.243 174.629 C 335.329 174.284,335.355 173.955,335.299 173.900 C 335.244 173.844,335.127 174.082,335.040 174.427 M130.715 176.651 C 130.715 177.105,130.764 177.291,130.823 177.064 C 130.882 176.837,130.882 176.465,130.823 176.238 C 130.764 176.011,130.715 176.197,130.715 176.651 M215.835 176.415 C 215.835 176.610,215.926 176.981,216.038 177.241 C 216.165 177.538,216.240 177.581,216.240 177.358 C 216.240 177.164,216.149 176.792,216.038 176.533 C 215.910 176.236,215.835 176.192,215.835 176.415 M334.316 177.358 C 334.226 177.766,334.202 178.149,334.262 178.209 C 334.323 178.269,334.440 177.979,334.522 177.565 C 334.719 176.582,334.528 176.391,334.316 177.358 M290.842 177.830 C 290.854 178.443,291.225 179.450,291.233 178.892 C 291.237 178.632,291.149 178.208,291.038 177.948 C 290.914 177.659,290.838 177.613,290.842 177.830 M107.564 177.948 C 107.564 178.078,107.716 178.449,107.901 178.774 C 108.086 179.098,108.238 179.257,108.238 179.127 C 108.238 178.998,108.086 178.626,107.901 178.302 C 107.716 177.978,107.564 177.818,107.564 177.948 M130.979 179.717 C 130.979 180.820,131.019 181.271,131.069 180.719 C 131.119 180.168,131.119 179.266,131.069 178.715 C 131.019 178.163,130.979 178.614,130.979 179.717 M239.783 179.599 C 239.858 180.248,239.958 180.823,240.007 180.877 C 240.172 181.062,240.047 179.599,239.847 179.009 C 239.712 178.612,239.691 178.804,239.783 179.599 M216.543 179.245 C 216.543 179.440,216.634 179.811,216.745 180.071 C 216.873 180.368,216.948 180.412,216.948 180.189 C 216.948 179.994,216.857 179.623,216.745 179.363 C 216.618 179.066,216.543 179.022,216.543 179.245 M108.487 180.414 C 108.611 180.844,108.777 181.261,108.856 181.341 C 109.078 181.562,108.693 180.101,108.464 179.851 C 108.354 179.730,108.364 179.983,108.487 180.414 M333.638 180.080 C 333.557 180.291,333.500 180.640,333.511 180.857 C 333.522 181.073,333.625 180.937,333.739 180.554 C 333.961 179.810,333.883 179.442,333.638 180.080 M131.075 212.500 C 131.041 229.363,131.094 243.160,131.191 243.160 C 131.288 243.160,131.368 229.363,131.368 212.500 C 131.368 195.637,131.316 181.840,131.252 181.840 C 131.188 181.840,131.108 195.637,131.075 212.500 M217.361 182.665 C 217.555 183.532,217.690 183.721,217.685 183.117 C 217.683 182.869,217.574 182.506,217.442 182.311 C 217.267 182.053,217.245 182.148,217.361 182.665 M240.382 182.901 C 240.384 183.160,240.467 183.691,240.566 184.080 C 240.728 184.716,240.747 184.728,240.750 184.198 C 240.753 183.874,240.670 183.343,240.566 183.019 C 240.418 182.557,240.378 182.531,240.382 182.901 M332.930 182.910 C 332.849 183.121,332.792 183.470,332.803 183.687 C 332.814 183.903,332.917 183.767,333.031 183.384 C 333.254 182.640,333.175 182.272,332.930 182.910 M109.262 183.962 C 109.262 184.546,109.308 184.785,109.365 184.493 C 109.421 184.201,109.421 183.723,109.365 183.432 C 109.308 183.140,109.262 183.379,109.262 183.962 M292.361 183.726 C 292.441 184.180,292.602 184.711,292.719 184.906 C 292.970 185.324,292.729 184.102,292.417 183.373 C 292.280 183.054,292.262 183.170,292.361 183.726 M311.821 185.024 C 311.802 185.283,311.731 185.761,311.665 186.085 L 311.543 186.675 311.796 186.096 C 311.935 185.778,312.005 185.300,311.953 185.035 C 311.859 184.564,311.856 184.564,311.821 185.024 M109.548 214.033 C 109.548 229.988,109.576 236.550,109.611 228.615 C 109.645 220.680,109.645 207.626,109.611 199.606 C 109.576 191.585,109.548 198.078,109.548 214.033 M261.347 185.875 C 261.202 186.292,261.124 186.674,261.174 186.725 C 261.225 186.775,261.385 186.476,261.530 186.059 C 261.676 185.642,261.753 185.260,261.703 185.209 C 261.652 185.159,261.492 185.458,261.347 185.875 M332.223 185.740 C 332.142 185.951,332.085 186.301,332.096 186.517 C 332.107 186.733,332.210 186.597,332.324 186.215 C 332.546 185.470,332.467 185.102,332.223 185.740 M218.672 187.972 C 218.684 188.585,219.055 189.591,219.064 189.033 C 219.068 188.774,218.979 188.349,218.868 188.090 C 218.744 187.801,218.668 187.755,218.672 187.972 M331.515 188.570 C 331.434 188.781,331.377 189.131,331.388 189.347 C 331.399 189.564,331.502 189.428,331.616 189.045 C 331.839 188.300,331.760 187.932,331.515 188.570 M293.776 189.151 C 293.856 189.605,294.017 190.136,294.134 190.330 C 294.385 190.749,294.144 189.526,293.832 188.797 C 293.695 188.479,293.677 188.594,293.776 189.151 M311.114 188.797 C 311.094 189.057,311.024 189.534,310.957 189.858 L 310.836 190.448 311.088 189.870 C 311.227 189.551,311.298 189.074,311.245 188.808 C 311.152 188.338,311.148 188.338,311.114 188.797 M219.484 191.392 C 219.678 192.259,219.813 192.447,219.808 191.844 C 219.806 191.595,219.696 191.232,219.565 191.038 C 219.390 190.779,219.368 190.875,219.484 191.392 M330.807 191.401 C 330.727 191.611,330.669 191.961,330.681 192.177 C 330.692 192.394,330.794 192.258,330.909 191.875 C 331.131 191.131,331.052 190.762,330.807 191.401 M310.406 192.571 C 310.387 192.830,310.316 193.308,310.250 193.632 L 310.128 194.222 310.381 193.643 C 310.520 193.325,310.590 192.847,310.538 192.582 C 310.444 192.112,310.441 192.111,310.406 192.571 M295.287 194.949 C 295.289 195.198,295.398 195.560,295.530 195.755 C 295.704 196.013,295.726 195.918,295.611 195.401 C 295.417 194.534,295.282 194.345,295.287 194.949 M329.864 195.313 C 329.668 196.296,329.858 196.486,330.071 195.519 C 330.160 195.111,330.184 194.728,330.124 194.668 C 330.064 194.608,329.947 194.898,329.864 195.313 M274.427 195.654 C 274.340 195.999,274.315 196.328,274.371 196.383 C 274.426 196.439,274.543 196.201,274.629 195.856 C 274.716 195.510,274.742 195.182,274.686 195.126 C 274.630 195.071,274.514 195.308,274.427 195.654 M276.455 195.401 C 276.451 195.660,276.539 196.085,276.651 196.344 C 276.909 196.945,276.909 196.325,276.651 195.519 C 276.499 195.045,276.461 195.022,276.455 195.401 M242.705 195.892 C 242.714 196.271,242.816 196.792,242.931 197.052 C 243.070 197.367,243.093 197.171,242.999 196.462 C 242.834 195.212,242.682 194.917,242.705 195.892 M309.699 196.344 C 309.679 196.604,309.609 197.081,309.542 197.406 L 309.421 197.995 309.673 197.417 C 309.812 197.098,309.883 196.621,309.830 196.355 C 309.737 195.885,309.733 195.885,309.699 196.344 M273.720 198.012 C 273.633 198.358,273.607 198.686,273.663 198.742 C 273.719 198.797,273.835 198.560,273.922 198.214 C 274.009 197.869,274.034 197.540,273.978 197.485 C 273.923 197.429,273.806 197.666,273.720 198.012 M329.157 198.143 C 328.960 199.126,329.151 199.316,329.363 198.349 C 329.453 197.941,329.477 197.559,329.417 197.499 C 329.357 197.438,329.240 197.728,329.157 198.143 M221.606 200.118 C 221.800 200.985,221.935 201.173,221.930 200.570 C 221.928 200.321,221.819 199.959,221.687 199.764 C 221.513 199.506,221.491 199.601,221.606 200.118 M308.991 200.118 C 308.972 200.377,308.901 200.855,308.834 201.179 L 308.713 201.769 308.966 201.190 C 309.105 200.872,309.175 200.394,309.122 200.129 C 309.029 199.659,309.026 199.658,308.991 200.118 M296.702 200.373 C 296.704 200.622,296.813 200.985,296.945 201.179 C 297.120 201.438,297.141 201.342,297.026 200.825 C 296.832 199.958,296.697 199.770,296.702 200.373 M328.449 200.973 C 328.253 201.956,328.443 202.146,328.656 201.179 C 328.745 200.772,328.769 200.389,328.709 200.329 C 328.649 200.269,328.532 200.559,328.449 200.973 M277.863 200.943 C 277.863 201.138,277.955 201.509,278.066 201.769 C 278.194 202.066,278.269 202.110,278.269 201.887 C 278.269 201.692,278.178 201.321,278.066 201.061 C 277.938 200.764,277.863 200.720,277.863 200.943 M222.314 202.948 C 222.508 203.815,222.643 204.004,222.638 203.400 C 222.636 203.152,222.527 202.789,222.395 202.594 C 222.220 202.336,222.198 202.431,222.314 202.948 M297.439 203.066 C 297.439 203.261,297.530 203.632,297.642 203.892 C 297.769 204.189,297.844 204.232,297.844 204.009 C 297.844 203.815,297.753 203.443,297.642 203.184 C 297.514 202.887,297.439 202.843,297.439 203.066 M327.742 203.803 C 327.545 204.786,327.736 204.977,327.948 204.009 C 328.038 203.602,328.062 203.219,328.002 203.159 C 327.942 203.099,327.825 203.389,327.742 203.803 M244.155 203.774 C 244.153 204.098,244.236 204.629,244.340 204.953 C 244.593 205.746,244.593 204.889,244.340 203.892 C 244.178 203.256,244.159 203.244,244.155 203.774 M278.571 203.774 C 278.571 203.968,278.662 204.340,278.774 204.599 C 278.901 204.896,278.976 204.940,278.976 204.717 C 278.976 204.522,278.885 204.151,278.774 203.892 C 278.646 203.594,278.571 203.551,278.571 203.774 M308.284 203.892 C 308.264 204.151,308.194 204.629,308.127 204.953 L 308.006 205.542 308.258 204.964 C 308.397 204.646,308.468 204.168,308.415 203.903 C 308.321 203.432,308.318 203.432,308.284 203.892 M223.153 206.250 C 223.149 206.509,223.238 206.934,223.349 207.193 C 223.607 207.794,223.607 207.174,223.349 206.368 C 223.197 205.894,223.159 205.871,223.153 206.250 M327.022 206.739 C 326.935 207.084,326.909 207.412,326.965 207.468 C 327.021 207.524,327.137 207.286,327.224 206.941 C 327.310 206.595,327.336 206.267,327.280 206.211 C 327.225 206.156,327.108 206.393,327.022 206.739 M279.278 206.604 C 279.278 206.798,279.370 207.170,279.481 207.429 C 279.609 207.727,279.684 207.770,279.684 207.547 C 279.684 207.353,279.593 206.981,279.481 206.722 C 279.353 206.424,279.278 206.381,279.278 206.604 M244.828 207.803 C 244.837 208.116,244.941 208.585,245.058 208.844 C 245.207 209.173,245.228 209.030,245.128 208.373 C 244.962 207.278,244.804 206.979,244.828 207.803 M307.576 207.665 C 307.557 207.925,307.486 208.402,307.419 208.726 L 307.298 209.316 307.551 208.737 C 307.690 208.419,307.760 207.942,307.707 207.676 C 307.614 207.206,307.610 207.206,307.576 207.665 M298.854 208.491 C 298.854 208.685,298.945 209.057,299.057 209.316 C 299.184 209.613,299.259 209.657,299.259 209.434 C 299.259 209.239,299.168 208.868,299.057 208.608 C 298.929 208.311,298.854 208.268,298.854 208.491 M223.861 209.080 C 223.857 209.340,223.945 209.764,224.057 210.024 C 224.315 210.625,224.315 210.005,224.057 209.198 C 223.905 208.724,223.866 208.701,223.861 209.080 M326.314 209.569 C 326.227 209.914,326.202 210.243,326.257 210.298 C 326.313 210.354,326.429 210.117,326.516 209.771 C 326.603 209.425,326.628 209.097,326.573 209.041 C 326.517 208.986,326.401 209.223,326.314 209.569 M280.097 209.788 C 280.291 210.655,280.426 210.843,280.421 210.240 C 280.419 209.991,280.310 209.629,280.178 209.434 C 280.003 209.176,279.981 209.271,280.097 209.788 M253.437 211.220 C 253.350 211.565,253.324 211.894,253.380 211.949 C 253.436 212.005,253.552 211.767,253.639 211.422 C 253.726 211.076,253.751 210.748,253.695 210.692 C 253.640 210.637,253.523 210.874,253.437 211.220 M299.561 211.321 C 299.561 211.515,299.653 211.887,299.764 212.146 C 299.892 212.444,299.967 212.487,299.967 212.264 C 299.967 212.070,299.876 211.698,299.764 211.439 C 299.636 211.141,299.561 211.098,299.561 211.321 M306.735 212.159 C 306.646 212.633,306.621 213.067,306.678 213.125 C 306.736 213.182,306.856 212.842,306.944 212.369 C 307.033 211.896,307.059 211.461,307.001 211.404 C 306.943 211.346,306.824 211.686,306.735 212.159 M280.694 212.028 C 280.694 212.223,280.785 212.594,280.896 212.854 C 281.024 213.151,281.099 213.195,281.099 212.972 C 281.099 212.777,281.008 212.406,280.896 212.146 C 280.768 211.849,280.694 211.805,280.694 212.028 M325.606 212.399 C 325.520 212.745,325.494 213.073,325.550 213.128 C 325.605 213.184,325.722 212.947,325.809 212.601 C 325.895 212.255,325.921 211.927,325.865 211.872 C 325.810 211.816,325.693 212.053,325.606 212.399 M300.269 213.915 C 300.269 214.110,300.360 214.481,300.472 214.741 C 300.599 215.038,300.674 215.081,300.674 214.858 C 300.674 214.664,300.583 214.292,300.472 214.033 C 300.344 213.736,300.269 213.692,300.269 213.915 M268.656 215.000 C 268.520 215.491,268.451 215.936,268.503 215.988 C 268.555 216.040,268.709 215.680,268.844 215.189 C 268.980 214.697,269.049 214.253,268.997 214.201 C 268.945 214.149,268.791 214.509,268.656 215.000 M225.276 214.976 C 225.272 215.236,225.360 215.660,225.472 215.920 C 225.730 216.521,225.730 215.901,225.472 215.094 C 225.320 214.620,225.282 214.597,225.276 214.976 M281.401 214.858 C 281.401 215.053,281.492 215.425,281.604 215.684 C 281.732 215.981,281.806 216.025,281.806 215.802 C 281.806 215.607,281.715 215.236,281.604 214.976 C 281.476 214.679,281.401 214.636,281.401 214.858 M324.882 215.330 C 324.793 215.738,324.768 216.121,324.829 216.181 C 324.889 216.241,325.006 215.951,325.088 215.537 C 325.285 214.553,325.095 214.363,324.882 215.330 M246.278 215.566 C 246.275 215.890,246.358 216.421,246.462 216.745 C 246.716 217.538,246.716 216.682,246.462 215.684 C 246.301 215.048,246.282 215.036,246.278 215.566 M306.027 215.933 C 305.938 216.406,305.913 216.841,305.971 216.898 C 306.028 216.956,306.148 216.616,306.237 216.143 C 306.326 215.669,306.351 215.235,306.294 215.177 C 306.236 215.120,306.116 215.460,306.027 215.933 M225.983 217.807 C 225.980 218.066,226.068 218.491,226.179 218.750 C 226.438 219.351,226.438 218.731,226.179 217.925 C 226.027 217.451,225.989 217.427,225.983 217.807 M251.314 218.059 C 251.227 218.405,251.202 218.733,251.257 218.789 C 251.313 218.844,251.429 218.607,251.516 218.261 C 251.603 217.916,251.628 217.588,251.573 217.532 C 251.517 217.476,251.401 217.714,251.314 218.059 M305.320 219.706 C 305.231 220.180,305.205 220.614,305.263 220.672 C 305.321 220.730,305.441 220.389,305.529 219.916 C 305.618 219.443,305.644 219.008,305.586 218.951 C 305.528 218.893,305.409 219.233,305.320 219.706 M246.951 219.595 C 246.960 219.909,247.063 220.377,247.181 220.637 C 247.330 220.966,247.351 220.823,247.251 220.165 C 247.084 219.070,246.927 218.771,246.951 219.595 M301.684 219.340 C 301.684 219.534,301.775 219.906,301.887 220.165 C 302.015 220.462,302.089 220.506,302.089 220.283 C 302.089 220.088,301.998 219.717,301.887 219.458 C 301.759 219.160,301.684 219.117,301.684 219.340 M282.927 220.873 C 283.121 221.740,283.256 221.928,283.251 221.325 C 283.249 221.076,283.140 220.713,283.008 220.519 C 282.833 220.261,282.811 220.356,282.927 220.873 M226.684 220.755 C 226.684 220.949,226.775 221.321,226.887 221.580 C 227.015 221.878,227.089 221.921,227.089 221.698 C 227.089 221.504,226.998 221.132,226.887 220.873 C 226.759 220.575,226.684 220.532,226.684 220.755 M304.612 223.480 C 304.523 223.953,304.498 224.388,304.556 224.445 C 304.613 224.503,304.733 224.163,304.822 223.690 C 304.911 223.216,304.936 222.782,304.878 222.724 C 304.821 222.667,304.701 223.007,304.612 223.480 M247.689 223.467 C 247.689 223.726,247.774 224.204,247.877 224.528 C 248.027 224.995,248.066 225.020,248.066 224.646 C 248.066 224.387,247.981 223.909,247.877 223.585 C 247.728 223.118,247.689 223.093,247.689 223.467 M283.635 223.703 C 283.828 224.570,283.963 224.758,283.959 224.155 C 283.957 223.906,283.847 223.544,283.716 223.349 C 283.541 223.091,283.519 223.186,283.635 223.703 M322.776 223.956 C 322.690 224.301,322.664 224.629,322.720 224.685 C 322.775 224.741,322.892 224.503,322.978 224.158 C 323.065 223.812,323.091 223.484,323.035 223.428 C 322.979 223.373,322.863 223.610,322.776 223.956 M265.701 224.899 C 265.614 225.245,265.589 225.573,265.644 225.628 C 265.700 225.684,265.816 225.447,265.903 225.101 C 265.990 224.755,266.015 224.427,265.960 224.372 C 265.904 224.316,265.788 224.553,265.701 224.899 M303.125 224.857 C 303.207 225.480,303.913 225.899,304.273 225.539 C 304.484 225.327,304.430 225.293,304.046 225.394 C 303.671 225.492,303.482 225.383,303.304 224.968 C 303.135 224.571,303.083 224.539,303.125 224.857 M249.057 225.224 C 249.057 225.411,248.876 225.479,248.585 225.403 C 248.325 225.335,248.172 225.376,248.245 225.494 C 248.317 225.611,248.524 225.708,248.703 225.708 C 249.076 225.708,249.409 225.274,249.198 225.063 C 249.120 224.985,249.057 225.058,249.057 225.224 M284.345 226.415 C 284.428 226.869,284.588 227.453,284.702 227.712 C 284.843 228.036,284.861 227.925,284.758 227.358 C 284.676 226.904,284.516 226.321,284.402 226.061 C 284.261 225.738,284.243 225.848,284.345 226.415 M322.069 226.786 C 321.982 227.131,321.956 227.460,322.012 227.515 C 322.068 227.571,322.184 227.334,322.271 226.988 C 322.358 226.642,322.383 226.314,322.328 226.258 C 322.272 226.203,322.155 226.440,322.069 226.786 M228.099 226.651 C 228.099 226.846,228.190 227.217,228.302 227.476 C 228.430 227.774,228.505 227.817,228.505 227.594 C 228.505 227.400,228.413 227.028,228.302 226.769 C 228.174 226.472,228.099 226.428,228.099 226.651 M264.993 227.257 C 264.907 227.603,264.881 227.931,264.937 227.987 C 264.992 228.043,265.109 227.805,265.195 227.460 C 265.282 227.114,265.308 226.786,265.252 226.730 C 265.196 226.674,265.080 226.912,264.993 227.257 M264.286 229.616 C 264.199 229.962,264.173 230.290,264.229 230.345 C 264.285 230.401,264.401 230.164,264.488 229.818 C 264.575 229.472,264.600 229.144,264.545 229.089 C 264.489 229.033,264.372 229.270,264.286 229.616 M321.344 229.717 C 321.255 230.125,321.231 230.507,321.291 230.568 C 321.351 230.628,321.468 230.338,321.551 229.923 C 321.747 228.940,321.557 228.750,321.344 229.717 M228.814 229.481 C 228.826 230.094,229.197 231.100,229.205 230.542 C 229.209 230.283,229.121 229.858,229.009 229.599 C 228.885 229.310,228.809 229.264,228.814 229.481 M263.578 231.974 C 263.491 232.320,263.466 232.648,263.522 232.704 C 263.577 232.760,263.694 232.522,263.780 232.177 C 263.867 231.831,263.893 231.503,263.837 231.447 C 263.781 231.391,263.665 231.629,263.578 231.974 M285.757 231.958 C 285.951 232.825,286.086 233.013,286.081 232.410 C 286.079 232.161,285.970 231.798,285.838 231.604 C 285.663 231.345,285.642 231.441,285.757 231.958 M320.637 232.547 C 320.547 232.955,320.523 233.338,320.583 233.398 C 320.643 233.458,320.760 233.168,320.843 232.754 C 321.040 231.770,320.849 231.580,320.637 232.547 M229.625 232.901 C 229.819 233.768,229.954 233.956,229.949 233.353 C 229.947 233.104,229.838 232.742,229.706 232.547 C 229.531 232.289,229.509 232.384,229.625 232.901 M286.471 234.788 C 286.718 235.910,287.056 236.584,286.884 235.613 C 286.804 235.159,286.643 234.629,286.526 234.434 C 286.388 234.203,286.368 234.325,286.471 234.788 M319.958 235.269 C 319.877 235.479,319.820 235.829,319.832 236.045 C 319.843 236.262,319.945 236.126,320.060 235.743 C 320.282 234.999,320.203 234.630,319.958 235.269 M230.222 235.377 C 230.222 235.572,230.313 235.943,230.425 236.203 C 230.552 236.500,230.627 236.544,230.627 236.321 C 230.627 236.126,230.536 235.755,230.425 235.495 C 230.297 235.198,230.222 235.154,230.222 235.377 M287.304 237.854 C 287.300 238.113,287.389 238.538,287.500 238.797 C 287.758 239.398,287.758 238.778,287.500 237.972 C 287.348 237.498,287.310 237.475,287.304 237.854 M319.251 238.099 C 319.170 238.310,319.113 238.659,319.124 238.875 C 319.135 239.092,319.238 238.956,319.352 238.573 C 319.574 237.829,319.496 237.460,319.251 238.099 M231.040 238.797 C 231.234 239.664,231.369 239.853,231.364 239.249 C 231.362 239.001,231.253 238.638,231.121 238.443 C 230.946 238.185,230.925 238.280,231.040 238.797 M318.543 240.929 C 318.462 241.140,318.405 241.489,318.416 241.706 C 318.428 241.922,318.530 241.786,318.645 241.403 C 318.867 240.659,318.788 240.291,318.543 240.929 M231.748 241.627 C 231.942 242.495,232.077 242.683,232.072 242.079 C 232.070 241.831,231.961 241.468,231.829 241.274 C 231.654 241.015,231.632 241.111,231.748 241.627 M28.126 272.052 C 28.128 272.571,28.176 272.755,28.233 272.462 C 28.289 272.168,28.287 271.744,28.228 271.518 C 28.169 271.293,28.123 271.533,28.126 272.052 M28.597 277.241 C 28.600 277.759,28.648 277.944,28.705 277.651 C 28.761 277.357,28.759 276.933,28.700 276.707 C 28.641 276.482,28.595 276.722,28.597 277.241 M359.469 278.096 C 359.450 278.436,359.381 279.073,359.317 279.511 L 359.200 280.307 359.448 279.515 C 359.585 279.080,359.653 278.443,359.600 278.100 L 359.505 277.476 359.469 278.096 M358.755 282.429 C 358.736 282.689,358.665 283.166,358.599 283.491 L 358.477 284.080 358.730 283.502 C 358.869 283.183,358.939 282.706,358.887 282.440 C 358.793 281.970,358.790 281.970,358.755 282.429 M357.930 286.114 C 357.848 286.529,357.823 286.911,357.877 286.965 C 357.930 287.018,358.047 286.728,358.137 286.321 C 358.226 285.913,358.250 285.530,358.190 285.470 C 358.130 285.410,358.013 285.700,357.930 286.114 M30.694 287.972 C 30.694 288.166,30.785 288.538,30.896 288.797 C 31.024 289.094,31.099 289.138,31.099 288.915 C 31.099 288.721,31.008 288.349,30.896 288.090 C 30.768 287.792,30.694 287.749,30.694 287.972 M352.869 301.071 C 352.473 301.939,352.549 302.124,352.976 301.335 C 353.176 300.967,353.295 300.622,353.241 300.568 C 353.187 300.514,353.019 300.740,352.869 301.071 M35.630 301.769 C 35.630 301.899,35.782 302.270,35.967 302.594 C 36.152 302.919,36.304 303.078,36.304 302.948 C 36.304 302.818,36.152 302.447,35.967 302.123 C 35.782 301.798,35.630 301.639,35.630 301.769 M39.151 308.726 C 39.416 309.245,39.685 309.670,39.750 309.670 C 39.815 309.670,39.651 309.245,39.387 308.726 C 39.122 308.208,38.852 307.783,38.788 307.783 C 38.723 307.783,38.886 308.208,39.151 308.726 M43.868 316.038 C 44.145 316.427,44.425 316.745,44.490 316.745 C 44.555 316.745,44.381 316.427,44.104 316.038 C 43.827 315.649,43.547 315.330,43.482 315.330 C 43.417 315.330,43.591 315.649,43.868 316.038 M45.014 317.630 C 45.273 317.986,45.819 318.650,46.228 319.104 C 46.637 319.558,46.470 319.266,45.857 318.455 C 44.768 317.016,44.080 316.342,45.014 317.630 M342.556 318.319 C 342.193 318.795,342.016 319.110,342.163 319.019 C 342.465 318.832,343.486 317.453,343.322 317.453 C 343.264 317.453,342.919 317.842,342.556 318.319 M338.782 322.936 L 338.090 323.703 338.856 323.010 C 339.571 322.364,339.731 322.170,339.549 322.170 C 339.508 322.170,339.163 322.515,338.782 322.936 M51.179 324.882 C 52.015 325.725,52.752 326.415,52.817 326.415 C 52.881 326.415,52.251 325.725,51.415 324.882 C 50.579 324.039,49.843 323.349,49.778 323.349 C 49.713 323.349,50.344 324.039,51.179 324.882 M335.138 326.828 L 332.429 329.599 335.200 326.891 C 337.775 324.375,338.079 324.057,337.909 324.057 C 337.874 324.057,336.627 325.304,335.138 326.828 M55.071 328.774 C 55.841 329.552,56.524 330.189,56.589 330.189 C 56.654 330.189,56.077 329.552,55.307 328.774 C 54.536 327.995,53.853 327.358,53.788 327.358 C 53.723 327.358,54.301 327.995,55.071 328.774 M331.235 330.483 L 330.542 331.250 331.309 330.557 C 332.023 329.912,332.184 329.717,332.002 329.717 C 331.961 329.717,331.616 330.062,331.235 330.483 M56.840 330.262 C 56.840 330.303,57.185 330.648,57.606 331.029 L 58.373 331.722 57.680 330.955 C 57.034 330.241,56.840 330.080,56.840 330.262 M329.584 331.899 L 328.892 332.665 329.658 331.972 C 330.373 331.327,330.533 331.132,330.351 331.132 C 330.310 331.132,329.965 331.477,329.584 331.899 M58.784 331.977 C 58.866 332.110,59.597 332.740,60.408 333.378 C 61.220 334.016,61.817 334.429,61.735 334.296 C 61.653 334.164,60.922 333.533,60.110 332.896 C 59.299 332.258,58.702 331.845,58.784 331.977 M325.590 334.937 C 324.195 335.981,324.010 336.265,325.283 335.409 C 325.892 334.999,326.456 334.559,326.535 334.431 C 326.742 334.095,326.641 334.150,325.590 334.937 M314.092 342.116 C 313.210 342.594,313.264 342.794,314.151 342.335 C 314.540 342.134,314.858 341.919,314.858 341.857 C 314.858 341.705,314.833 341.714,314.092 342.116 M297.439 348.620 C 297.003 348.745,296.691 348.892,296.744 348.946 C 296.864 349.065,298.585 348.607,298.585 348.456 C 298.585 348.317,298.398 348.344,297.439 348.620 M295.047 349.292 C 294.561 349.448,294.541 349.485,294.929 349.501 C 295.189 349.512,295.560 349.418,295.755 349.292 C 296.168 349.025,295.881 349.025,295.047 349.292 M291.863 350.000 C 291.221 350.163,291.210 350.181,291.745 350.191 C 292.070 350.198,292.547 350.111,292.807 350.000 C 293.388 349.750,292.845 349.750,291.863 350.000 M98.057 350.403 C 98.350 350.459,98.775 350.457,99.000 350.398 C 99.226 350.339,98.986 350.293,98.467 350.295 C 97.948 350.298,97.764 350.346,98.057 350.403 M289.328 350.402 C 289.620 350.459,290.097 350.459,290.389 350.402 C 290.681 350.346,290.442 350.300,289.858 350.300 C 289.275 350.300,289.036 350.346,289.328 350.402 "
       stroke="none"
       fill="#8da4bc"
       fill-rule="evenodd" />
    <path
       id="path4"
       d="M87.618 23.475 C 87.028 23.759,87.009 23.792,87.500 23.672 C 88.168 23.509,88.919 23.126,88.561 23.131 C 88.432 23.133,88.007 23.288,87.618 23.475 M85.495 24.183 C 84.906 24.467,84.886 24.500,85.377 24.380 C 86.046 24.216,86.797 23.833,86.439 23.839 C 86.309 23.840,85.884 23.995,85.495 24.183 M79.953 26.297 C 79.629 26.483,79.469 26.634,79.599 26.634 C 79.729 26.634,80.100 26.483,80.425 26.297 C 80.749 26.112,80.908 25.960,80.778 25.960 C 80.649 25.960,80.277 26.112,79.953 26.297 M329.953 39.696 C 329.953 39.737,330.298 40.082,330.719 40.463 L 331.486 41.156 330.793 40.389 C 330.147 39.675,329.953 39.514,329.953 39.696 M56.471 41.333 L 55.778 42.099 56.545 41.406 C 57.259 40.761,57.420 40.566,57.238 40.566 C 57.197 40.566,56.852 40.911,56.471 41.333 M332.665 42.217 C 333.304 42.866,333.880 43.396,333.945 43.396 C 334.009 43.396,333.540 42.866,332.901 42.217 C 332.262 41.568,331.686 41.038,331.622 41.038 C 331.557 41.038,332.026 41.568,332.665 42.217 M52.939 44.634 L 51.769 45.873 53.007 44.702 C 54.158 43.615,54.353 43.396,54.177 43.396 C 54.140 43.396,53.583 43.953,52.939 44.634 M337.393 46.944 C 338.035 47.663,338.609 48.217,338.668 48.174 C 338.727 48.131,338.201 47.543,337.499 46.867 L 336.224 45.637 337.393 46.944 M50.236 47.524 C 49.663 48.107,49.247 48.585,49.312 48.585 C 49.377 48.585,49.899 48.107,50.472 47.524 C 51.045 46.940,51.460 46.462,51.395 46.462 C 51.331 46.462,50.809 46.940,50.236 47.524 M339.522 49.315 C 339.902 49.781,340.260 50.123,340.318 50.074 C 340.376 50.025,340.066 49.643,339.628 49.226 L 338.831 48.467 339.522 49.315 M45.855 52.718 C 45.374 53.305,45.022 53.821,45.073 53.865 C 45.124 53.909,45.565 53.429,46.053 52.798 C 47.173 51.352,47.024 51.292,45.855 52.718 M344.104 55.189 C 344.381 55.578,344.661 55.896,344.726 55.896 C 344.790 55.896,344.617 55.578,344.340 55.189 C 344.063 54.800,343.783 54.481,343.718 54.481 C 343.653 54.481,343.827 54.800,344.104 55.189 M34.238 72.865 C 34.100 73.261,34.037 73.585,34.098 73.585 C 34.258 73.585,34.703 72.360,34.586 72.243 C 34.532 72.189,34.376 72.470,34.238 72.865 M354.374 74.116 C 354.462 74.407,354.631 74.750,354.750 74.877 C 354.869 75.003,354.846 74.765,354.700 74.346 C 354.402 73.489,354.126 73.295,354.374 74.116 M358.022 85.987 C 358.024 86.235,358.134 86.598,358.265 86.792 C 358.440 87.051,358.462 86.955,358.347 86.439 C 358.153 85.571,358.018 85.383,358.022 85.987 M29.980 86.596 C 29.965 86.813,29.892 87.184,29.817 87.422 C 29.688 87.831,29.695 87.832,29.951 87.434 C 30.099 87.203,30.173 86.831,30.114 86.608 C 30.018 86.243,30.005 86.242,29.980 86.596 M358.767 89.505 C 358.763 89.764,358.851 90.189,358.962 90.448 C 359.221 91.049,359.221 90.429,358.962 89.623 C 358.810 89.149,358.772 89.126,358.767 89.505 M29.274 90.212 C 29.255 90.472,29.184 90.949,29.117 91.274 L 28.996 91.863 29.249 91.285 C 29.388 90.966,29.458 90.489,29.405 90.223 C 29.312 89.753,29.309 89.753,29.274 90.212 M359.457 94.241 C 359.470 94.620,359.571 95.195,359.681 95.519 C 359.817 95.916,359.837 95.725,359.746 94.929 C 359.592 93.603,359.422 93.195,359.457 94.241 M28.420 96.226 C 28.328 97.021,28.302 97.721,28.364 97.782 C 28.425 97.843,28.549 97.242,28.639 96.445 C 28.729 95.649,28.754 94.949,28.695 94.890 C 28.636 94.831,28.512 95.432,28.420 96.226 M359.960 98.585 C 359.960 99.039,360.009 99.225,360.068 98.998 C 360.128 98.771,360.128 98.399,360.068 98.172 C 360.009 97.945,359.960 98.131,359.960 98.585 M28.145 101.651 C 28.145 102.624,28.187 103.022,28.238 102.535 C 28.289 102.049,28.289 101.253,28.238 100.767 C 28.187 100.280,28.145 100.678,28.145 101.651 M97.577 150.406 C 97.996 150.458,98.739 150.459,99.228 150.408 C 99.718 150.357,99.375 150.314,98.467 150.313 C 97.559 150.312,97.159 150.354,97.577 150.406 M102.300 150.406 C 102.721 150.459,103.411 150.459,103.833 150.406 C 104.254 150.354,103.909 150.311,103.066 150.311 C 102.223 150.311,101.878 150.354,102.300 150.406 M94.988 150.638 C 95.280 150.694,95.758 150.694,96.050 150.638 C 96.341 150.582,96.103 150.536,95.519 150.536 C 94.935 150.536,94.696 150.582,94.988 150.638 M105.366 150.638 C 105.657 150.694,106.135 150.694,106.427 150.638 C 106.719 150.582,106.480 150.536,105.896 150.536 C 105.313 150.536,105.074 150.582,105.366 150.638 M76.120 151.115 L 77.594 151.201 77.594 154.360 C 77.594 157.278,77.774 158.210,78.204 157.515 C 78.309 157.345,78.273 157.302,78.109 157.403 C 77.918 157.521,77.825 156.651,77.778 154.314 L 77.712 151.061 76.179 151.045 L 74.646 151.029 76.120 151.115 M69.524 151.353 C 70.210 151.401,71.271 151.401,71.883 151.352 C 72.495 151.304,71.934 151.265,70.637 151.265 C 69.340 151.266,68.839 151.306,69.524 151.353 M209.751 151.543 C 209.674 151.743,209.678 151.973,209.759 152.054 C 209.839 152.135,209.906 152.025,209.906 151.810 C 209.906 151.452,210.944 151.414,222.347 151.356 L 234.788 151.293 222.339 151.236 C 211.303 151.186,209.875 151.221,209.751 151.543 M262.346 151.543 C 262.269 151.743,262.272 151.973,262.353 152.054 C 262.434 152.135,262.500 152.022,262.500 151.804 C 262.500 151.435,263.303 151.411,273.327 151.469 C 279.281 151.504,284.104 151.453,284.044 151.356 C 283.803 150.966,262.496 151.150,262.346 151.543 M329.405 151.355 C 338.192 151.405,340.791 151.486,340.867 151.712 C 340.922 151.877,340.954 151.850,340.939 151.651 C 340.917 151.342,339.472 151.297,329.478 151.294 L 318.042 151.290 329.405 151.355 M66.100 151.584 C 66.458 151.639,66.989 151.637,67.279 151.581 C 67.569 151.525,67.276 151.481,66.627 151.483 C 65.979 151.484,65.741 151.530,66.100 151.584 M59.257 151.820 C 59.614 151.874,60.198 151.874,60.554 151.820 C 60.911 151.766,60.619 151.722,59.906 151.722 C 59.192 151.722,58.900 151.766,59.257 151.820 M317.836 152.014 C 317.755 152.225,317.700 152.627,317.713 152.908 C 317.728 153.232,317.808 153.117,317.931 152.596 C 318.137 151.719,318.081 151.376,317.836 152.014 M56.241 152.182 C 56.179 152.344,56.156 172.907,56.190 197.877 L 56.250 243.278 67.040 243.282 L 77.830 243.286 67.099 243.221 L 56.368 243.156 56.368 197.656 C 56.368 154.522,56.389 152.152,56.781 152.049 C 57.167 151.948,57.167 151.940,56.773 151.914 C 56.542 151.899,56.303 152.019,56.241 152.182 M86.851 152.602 C 86.062 152.919,86.209 153.080,87.028 152.795 C 87.417 152.659,87.736 152.506,87.736 152.453 C 87.736 152.313,87.449 152.362,86.851 152.602 M340.593 152.634 C 340.578 152.850,340.505 153.222,340.430 153.459 C 340.302 153.869,340.309 153.870,340.564 153.471 C 340.712 153.240,340.786 152.869,340.727 152.646 C 340.631 152.281,340.618 152.280,340.593 152.634 M235.296 153.892 C 235.375 154.410,235.479 154.879,235.527 154.933 C 235.705 155.136,235.571 153.873,235.366 153.420 C 235.217 153.091,235.196 153.234,235.296 153.892 M210.182 153.774 C 210.194 154.386,210.565 155.393,210.573 154.835 C 210.577 154.575,210.489 154.151,210.377 153.892 C 210.253 153.603,210.177 153.557,210.182 153.774 M317.132 155.710 C 317.053 156.007,316.997 156.462,317.008 156.722 C 317.019 156.981,317.126 156.779,317.244 156.273 C 317.474 155.293,317.376 154.800,317.132 155.710 M339.886 155.464 C 339.871 155.681,339.797 156.052,339.723 156.290 C 339.594 156.699,339.601 156.700,339.857 156.302 C 340.005 156.070,340.078 155.699,340.020 155.476 C 339.924 155.111,339.910 155.110,339.886 155.464 M120.165 156.061 C 120.925 156.836,122.453 158.044,121.934 157.459 C 121.610 157.093,121.026 156.574,120.637 156.307 C 120.248 156.039,120.035 155.928,120.165 156.061 M285.757 157.901 C 285.951 158.768,286.086 158.956,286.081 158.353 C 286.079 158.104,285.970 157.742,285.838 157.547 C 285.663 157.289,285.642 157.384,285.757 157.901 M339.178 158.294 C 339.163 158.511,339.090 158.882,339.015 159.120 C 338.887 159.529,338.894 159.530,339.149 159.132 C 339.297 158.901,339.371 158.529,339.312 158.306 C 339.216 157.941,339.203 157.940,339.178 158.294 M316.421 159.561 C 316.340 159.772,316.284 160.174,316.298 160.456 C 316.313 160.779,316.393 160.664,316.516 160.143 C 316.722 159.267,316.666 158.923,316.421 159.561 M236.711 161.675 C 236.790 162.193,236.894 162.662,236.942 162.716 C 237.120 162.919,236.987 161.656,236.781 161.203 C 236.632 160.874,236.611 161.017,236.711 161.675 M212.304 162.500 C 212.316 163.113,212.688 164.119,212.696 163.561 C 212.700 163.302,212.611 162.877,212.500 162.618 C 212.376 162.329,212.300 162.283,212.304 162.500 M265.098 162.638 C 265.100 162.886,265.209 163.249,265.341 163.443 C 265.516 163.702,265.538 163.606,265.422 163.090 C 265.228 162.222,265.093 162.034,265.098 162.638 M287.172 163.325 C 287.366 164.193,287.501 164.381,287.496 163.778 C 287.494 163.529,287.385 163.166,287.253 162.972 C 287.079 162.713,287.057 162.809,287.172 163.325 M315.713 163.335 C 315.632 163.545,315.577 163.948,315.590 164.229 C 315.605 164.552,315.686 164.438,315.808 163.917 C 316.014 163.040,315.958 162.696,315.713 163.335 M266.564 168.396 C 266.564 168.850,266.613 169.036,266.672 168.809 C 266.731 168.582,266.731 168.210,266.672 167.983 C 266.613 167.756,266.564 167.942,266.564 168.396 M288.587 168.750 C 288.781 169.617,288.916 169.805,288.911 169.202 C 288.909 168.953,288.800 168.591,288.668 168.396 C 288.494 168.138,288.472 168.233,288.587 168.750 M213.919 169.241 C 213.921 169.490,214.030 169.853,214.162 170.047 C 214.337 170.306,214.358 170.210,214.243 169.693 C 214.049 168.826,213.914 168.638,213.919 169.241 M89.802 171.629 C 90.096 171.685,90.520 171.683,90.746 171.624 C 90.971 171.565,90.731 171.519,90.212 171.522 C 89.693 171.524,89.509 171.573,89.802 171.629 M96.167 171.629 C 96.459 171.685,96.937 171.685,97.229 171.629 C 97.521 171.572,97.282 171.527,96.698 171.527 C 96.114 171.527,95.876 171.572,96.167 171.629 M86.321 171.934 C 85.521 172.102,85.517 172.108,86.203 172.115 C 86.592 172.119,87.176 172.038,87.500 171.934 C 88.273 171.686,87.497 171.686,86.321 171.934 M98.703 171.934 C 98.962 172.045,99.387 172.134,99.646 172.130 C 100.025 172.124,100.002 172.086,99.528 171.934 C 98.722 171.676,98.102 171.676,98.703 171.934 M130.097 172.288 C 130.291 173.155,130.426 173.343,130.421 172.740 C 130.419 172.491,130.310 172.129,130.178 171.934 C 130.003 171.676,129.981 171.771,130.097 172.288 M83.019 172.642 C 82.533 172.797,82.512 172.834,82.901 172.850 C 83.160 172.861,83.532 172.767,83.726 172.642 C 84.140 172.374,83.853 172.374,83.019 172.642 M335.641 172.681 C 335.626 172.898,335.552 173.269,335.477 173.507 C 335.349 173.916,335.356 173.917,335.611 173.519 C 335.760 173.287,335.833 172.916,335.774 172.693 C 335.678 172.328,335.665 172.327,335.641 172.681 M80.307 173.475 C 79.717 173.759,79.697 173.792,80.189 173.672 C 80.857 173.509,81.608 173.126,81.250 173.131 C 81.120 173.133,80.696 173.288,80.307 173.475 M290.008 174.175 C 290.256 175.297,290.594 175.971,290.422 175.000 C 290.342 174.546,290.181 174.015,290.064 173.821 C 289.925 173.590,289.906 173.712,290.008 174.175 M78.597 174.064 C 78.305 174.181,78.074 174.413,78.085 174.580 C 78.099 174.816,78.129 174.818,78.222 174.587 C 78.288 174.425,78.485 174.292,78.661 174.292 C 78.838 174.292,79.047 174.186,79.127 174.057 C 79.296 173.783,79.295 173.783,78.597 174.064 M313.349 175.967 C 313.263 176.508,313.238 176.996,313.294 177.052 C 313.351 177.108,313.471 176.716,313.561 176.179 C 313.652 175.643,313.677 175.155,313.616 175.094 C 313.556 175.034,313.435 175.426,313.349 175.967 M334.933 175.511 C 334.918 175.728,334.845 176.099,334.770 176.337 C 334.641 176.746,334.648 176.747,334.904 176.349 C 335.052 176.118,335.125 175.746,335.067 175.523 C 334.971 175.158,334.958 175.157,334.933 175.511 M130.956 177.005 C 130.958 177.524,131.007 177.708,131.063 177.415 C 131.119 177.121,131.117 176.697,131.058 176.471 C 130.999 176.246,130.953 176.486,130.956 177.005 M216.041 177.968 C 216.043 178.216,216.153 178.579,216.284 178.774 C 216.459 179.032,216.481 178.937,216.365 178.420 C 216.172 177.553,216.037 177.364,216.041 177.968 M312.642 179.741 C 312.555 180.281,312.530 180.769,312.587 180.826 C 312.643 180.882,312.763 180.489,312.854 179.953 C 312.944 179.416,312.969 178.928,312.909 178.868 C 312.848 178.807,312.728 179.200,312.642 179.741 M131.208 180.425 C 131.208 181.268,131.250 181.613,131.303 181.191 C 131.355 180.769,131.355 180.080,131.303 179.658 C 131.250 179.236,131.208 179.581,131.208 180.425 M291.543 179.953 C 291.543 180.147,291.634 180.519,291.745 180.778 C 291.873 181.076,291.948 181.119,291.948 180.896 C 291.948 180.702,291.857 180.330,291.745 180.071 C 291.618 179.773,291.543 179.730,291.543 179.953 M216.749 180.798 C 216.751 181.047,216.860 181.409,216.992 181.604 C 217.167 181.862,217.189 181.767,217.073 181.250 C 216.879 180.383,216.744 180.195,216.749 180.798 M108.635 181.486 C 108.828 182.353,108.963 182.541,108.959 181.938 C 108.957 181.689,108.847 181.327,108.716 181.132 C 108.541 180.874,108.519 180.969,108.635 181.486 M311.934 183.514 C 311.848 184.055,311.823 184.543,311.879 184.599 C 311.935 184.656,312.056 184.263,312.146 183.726 C 312.237 183.190,312.262 182.702,312.201 182.641 C 312.141 182.581,312.020 182.974,311.934 183.514 M332.682 184.569 C 332.595 184.914,332.570 185.243,332.625 185.298 C 332.681 185.354,332.797 185.117,332.884 184.771 C 332.971 184.425,332.996 184.097,332.941 184.041 C 332.885 183.986,332.769 184.223,332.682 184.569 M109.269 186.085 C 109.269 186.798,109.313 187.090,109.367 186.733 C 109.421 186.377,109.421 185.793,109.367 185.436 C 109.313 185.080,109.269 185.371,109.269 186.085 M292.958 185.377 C 292.958 185.572,293.049 185.943,293.160 186.203 C 293.288 186.500,293.363 186.544,293.363 186.321 C 293.363 186.126,293.272 185.755,293.160 185.495 C 293.033 185.198,292.958 185.154,292.958 185.377 M241.089 185.849 C 241.087 186.173,241.170 186.704,241.274 187.028 C 241.527 187.821,241.527 186.965,241.274 185.967 C 241.112 185.331,241.093 185.319,241.089 185.849 M218.164 186.694 C 218.166 186.943,218.275 187.305,218.407 187.500 C 218.582 187.758,218.604 187.663,218.488 187.146 C 218.294 186.279,218.159 186.091,218.164 186.694 M311.216 187.395 C 311.127 187.868,311.102 188.303,311.159 188.361 C 311.217 188.418,311.337 188.078,311.426 187.605 C 311.514 187.132,311.540 186.697,311.482 186.639 C 311.425 186.582,311.305 186.922,311.216 187.395 M331.974 187.399 C 331.888 187.745,331.862 188.073,331.918 188.128 C 331.973 188.184,332.090 187.947,332.177 187.601 C 332.263 187.255,332.289 186.927,332.233 186.872 C 332.178 186.816,332.061 187.053,331.974 187.399 M331.267 190.229 C 331.180 190.575,331.155 190.903,331.210 190.959 C 331.266 191.014,331.382 190.777,331.469 190.431 C 331.556 190.086,331.581 189.757,331.526 189.702 C 331.470 189.646,331.354 189.883,331.267 190.229 M310.508 191.169 C 310.420 191.642,310.394 192.077,310.452 192.134 C 310.509 192.192,310.629 191.852,310.718 191.378 C 310.807 190.905,310.832 190.471,310.775 190.413 C 310.717 190.355,310.597 190.695,310.508 191.169 M294.373 190.802 C 294.373 190.996,294.464 191.368,294.575 191.627 C 294.703 191.925,294.778 191.968,294.778 191.745 C 294.778 191.551,294.687 191.179,294.575 190.920 C 294.448 190.622,294.373 190.579,294.373 190.802 M219.609 192.453 C 219.609 192.647,219.700 193.019,219.811 193.278 C 219.939 193.576,220.014 193.619,220.014 193.396 C 220.014 193.202,219.923 192.830,219.811 192.571 C 219.684 192.273,219.609 192.230,219.609 192.453 M309.801 194.942 C 309.712 195.416,309.687 195.850,309.744 195.908 C 309.802 195.965,309.922 195.625,310.010 195.152 C 310.099 194.679,310.125 194.244,310.067 194.187 C 310.009 194.129,309.890 194.469,309.801 194.942 M243.207 197.759 C 243.207 198.019,243.292 198.496,243.396 198.821 C 243.546 199.288,243.585 199.312,243.585 198.939 C 243.585 198.679,243.500 198.202,243.396 197.877 C 243.247 197.410,243.207 197.386,243.207 197.759 M221.024 198.349 C 221.024 198.544,221.115 198.915,221.226 199.175 C 221.354 199.472,221.429 199.515,221.429 199.292 C 221.429 199.098,221.338 198.726,221.226 198.467 C 221.099 198.170,221.024 198.126,221.024 198.349 M309.080 198.821 C 308.991 199.228,308.967 199.611,309.027 199.671 C 309.087 199.731,309.204 199.441,309.287 199.027 C 309.483 198.044,309.293 197.854,309.080 198.821 M277.266 199.292 C 277.347 199.746,277.508 200.277,277.625 200.472 C 277.876 200.890,277.634 199.668,277.322 198.939 C 277.186 198.620,277.168 198.736,277.266 199.292 M221.731 201.179 C 221.731 201.374,221.822 201.745,221.934 202.005 C 222.062 202.302,222.137 202.346,222.137 202.123 C 222.137 201.928,222.045 201.557,221.934 201.297 C 221.806 201.000,221.731 200.956,221.731 201.179 M308.373 202.594 C 308.283 203.002,308.259 203.385,308.319 203.445 C 308.379 203.505,308.496 203.215,308.579 202.801 C 308.776 201.818,308.585 201.627,308.373 202.594 M278.070 202.496 C 278.072 202.745,278.181 203.107,278.313 203.302 C 278.487 203.560,278.509 203.465,278.394 202.948 C 278.200 202.081,278.065 201.893,278.070 202.496 M222.446 204.009 C 222.458 204.622,222.829 205.629,222.837 205.071 C 222.841 204.811,222.753 204.387,222.642 204.127 C 222.517 203.838,222.441 203.793,222.446 204.009 M298.021 204.835 C 298.215 205.702,298.350 205.890,298.345 205.287 C 298.343 205.038,298.234 204.676,298.102 204.481 C 297.928 204.223,297.906 204.318,298.021 204.835 M327.622 204.993 C 327.607 205.209,327.533 205.580,327.459 205.818 C 327.330 206.227,327.337 206.228,327.592 205.830 C 327.741 205.599,327.814 205.227,327.755 205.004 C 327.660 204.639,327.646 204.638,327.622 204.993 M244.730 206.250 C 244.809 206.769,244.913 207.238,244.961 207.292 C 245.139 207.494,245.005 206.231,244.800 205.778 C 244.651 205.450,244.630 205.593,244.730 206.250 M307.665 206.368 C 307.576 206.776,307.551 207.158,307.612 207.218 C 307.672 207.279,307.789 206.989,307.871 206.574 C 308.068 205.591,307.878 205.401,307.665 206.368 M326.914 207.823 C 326.899 208.039,326.826 208.411,326.751 208.648 C 326.622 209.058,326.629 209.058,326.885 208.660 C 327.033 208.429,327.106 208.057,327.048 207.835 C 326.952 207.469,326.939 207.468,326.914 207.823 M245.323 209.670 C 245.335 210.283,245.706 211.289,245.715 210.731 C 245.718 210.472,245.630 210.047,245.519 209.788 C 245.395 209.499,245.319 209.453,245.323 209.670 M306.991 209.955 C 306.911 210.252,306.855 210.708,306.867 210.967 C 306.878 211.226,306.984 211.025,307.103 210.519 C 307.333 209.539,307.235 209.045,306.991 209.955 M223.861 209.906 C 223.873 210.518,224.244 211.525,224.252 210.967 C 224.256 210.708,224.168 210.283,224.057 210.024 C 223.932 209.735,223.857 209.689,223.861 209.906 M299.436 210.259 C 299.630 211.127,299.765 211.315,299.761 210.711 C 299.759 210.463,299.649 210.100,299.518 209.906 C 299.343 209.647,299.321 209.743,299.436 210.259 M326.207 210.653 C 326.192 210.869,326.118 211.241,326.044 211.478 C 325.915 211.888,325.922 211.888,326.177 211.490 C 326.326 211.259,326.399 210.888,326.340 210.665 C 326.245 210.300,326.231 210.298,326.207 210.653 M224.568 212.736 C 224.580 213.349,224.952 214.355,224.960 213.797 C 224.964 213.538,224.876 213.113,224.764 212.854 C 224.640 212.565,224.564 212.519,224.568 212.736 M280.900 213.581 C 280.902 213.830,281.011 214.192,281.143 214.387 C 281.318 214.645,281.340 214.550,281.224 214.033 C 281.030 213.166,280.895 212.978,280.900 213.581 M306.283 213.729 C 306.204 214.026,306.148 214.481,306.159 214.741 C 306.170 215.000,306.277 214.798,306.395 214.292 C 306.625 213.312,306.527 212.819,306.283 213.729 M325.499 213.483 C 325.484 213.699,325.411 214.071,325.336 214.309 C 325.207 214.718,325.214 214.719,325.470 214.320 C 325.618 214.089,325.691 213.718,325.633 213.495 C 325.537 213.130,325.524 213.129,325.499 213.483 M300.857 215.684 C 301.105 216.806,301.443 217.480,301.271 216.509 C 301.191 216.055,301.030 215.525,300.913 215.330 C 300.775 215.099,300.755 215.221,300.857 215.684 M281.607 216.411 C 281.609 216.660,281.719 217.022,281.850 217.217 C 282.025 217.475,282.047 217.380,281.932 216.863 C 281.738 215.996,281.603 215.808,281.607 216.411 M246.853 218.042 C 246.932 218.561,247.036 219.030,247.083 219.084 C 247.262 219.287,247.128 218.024,246.923 217.571 C 246.774 217.242,246.753 217.385,246.853 218.042 M305.572 217.580 C 305.491 217.791,305.435 218.193,305.449 218.474 C 305.464 218.798,305.544 218.683,305.666 218.162 C 305.872 217.285,305.816 216.942,305.572 217.580 M226.183 219.477 C 226.185 219.726,226.294 220.088,226.426 220.283 C 226.601 220.541,226.623 220.446,226.507 219.929 C 226.313 219.062,226.178 218.874,226.183 219.477 M302.272 221.108 C 302.520 222.231,302.858 222.905,302.686 221.934 C 302.606 221.480,302.445 220.949,302.328 220.755 C 302.190 220.523,302.170 220.646,302.272 221.108 M304.868 221.276 C 304.789 221.573,304.733 222.028,304.744 222.288 C 304.755 222.547,304.862 222.345,304.980 221.839 C 305.210 220.859,305.112 220.366,304.868 221.276 M226.691 221.462 C 226.703 222.075,227.074 223.082,227.083 222.524 C 227.086 222.264,226.998 221.840,226.887 221.580 C 226.763 221.291,226.687 221.246,226.691 221.462 M247.560 222.052 C 247.639 222.571,247.743 223.040,247.791 223.094 C 247.969 223.296,247.836 222.033,247.630 221.580 C 247.482 221.251,247.460 221.394,247.560 222.052 M303.398 225.053 C 303.432 225.218,303.654 225.354,303.892 225.354 C 304.129 225.354,304.351 225.218,304.385 225.053 C 304.418 224.888,304.392 224.861,304.326 224.994 C 304.260 225.127,304.064 225.236,303.892 225.236 C 303.719 225.236,303.523 225.127,303.457 224.994 C 303.391 224.861,303.365 224.888,303.398 225.053 M321.961 227.870 C 321.946 228.086,321.873 228.458,321.798 228.695 C 321.670 229.105,321.677 229.105,321.932 228.707 C 322.080 228.476,322.154 228.105,322.095 227.882 C 321.999 227.517,321.986 227.515,321.961 227.870 M228.305 228.204 C 228.307 228.452,228.417 228.815,228.549 229.009 C 228.723 229.268,228.745 229.172,228.630 228.656 C 228.436 227.788,228.301 227.600,228.305 228.204 M285.175 230.189 C 285.175 230.383,285.266 230.755,285.377 231.014 C 285.505 231.311,285.580 231.355,285.580 231.132 C 285.580 230.938,285.489 230.566,285.377 230.307 C 285.250 230.009,285.175 229.966,285.175 230.189 M285.882 233.019 C 285.882 233.213,285.973 233.585,286.085 233.844 C 286.213 234.142,286.288 234.185,286.288 233.962 C 286.288 233.768,286.196 233.396,286.085 233.137 C 285.957 232.839,285.882 232.796,285.882 233.019 M319.710 236.927 C 319.623 237.273,319.598 237.601,319.654 237.657 C 319.709 237.712,319.826 237.475,319.912 237.129 C 319.999 236.784,320.025 236.455,319.969 236.400 C 319.913 236.344,319.797 236.582,319.710 236.927 M230.428 236.930 C 230.430 237.179,230.539 237.541,230.671 237.736 C 230.846 237.994,230.868 237.899,230.752 237.382 C 230.558 236.515,230.423 236.327,230.428 236.930 M319.003 239.757 C 318.916 240.103,318.890 240.431,318.946 240.487 C 319.002 240.543,319.118 240.305,319.205 239.960 C 319.292 239.614,319.317 239.286,319.262 239.230 C 319.206 239.174,319.089 239.412,319.003 239.757 M288.012 241.274 C 288.024 241.886,288.395 242.893,288.403 242.335 C 288.407 242.075,288.319 241.651,288.208 241.392 C 288.083 241.103,288.008 241.057,288.012 241.274 M318.314 242.512 L 318.152 243.157 303.475 243.219 L 288.797 243.282 303.470 243.339 C 319.440 243.401,318.999 243.436,318.569 242.147 C 318.518 241.993,318.403 242.157,318.314 242.512 M260.559 242.634 L 260.422 243.157 246.308 243.219 L 232.193 243.282 246.256 243.339 C 261.026 243.399,261.123 243.393,260.795 242.408 C 260.740 242.245,260.634 242.346,260.559 242.634 M109.637 243.222 C 109.735 243.320,114.586 243.373,120.415 243.340 L 131.014 243.278 120.236 243.160 C 114.308 243.095,109.538 243.123,109.637 243.222 M28.145 269.575 C 28.145 270.548,28.187 270.946,28.238 270.460 C 28.289 269.973,28.289 269.177,28.238 268.691 C 28.187 268.205,28.145 268.603,28.145 269.575 M359.960 272.406 C 359.960 272.860,360.009 273.045,360.068 272.818 C 360.128 272.591,360.128 272.220,360.068 271.993 C 360.009 271.766,359.960 271.952,359.960 272.406 M28.343 274.057 C 28.335 274.381,28.417 275.071,28.524 275.590 C 28.649 276.195,28.724 276.322,28.733 275.943 C 28.740 275.619,28.659 274.929,28.551 274.410 C 28.426 273.805,28.351 273.678,28.343 274.057 M359.592 275.918 C 359.505 276.353,359.446 276.935,359.460 277.211 C 359.474 277.487,359.580 277.235,359.694 276.651 C 359.809 276.067,359.869 275.485,359.827 275.357 C 359.785 275.230,359.680 275.482,359.592 275.918 M29.050 279.717 C 29.062 280.330,29.433 281.336,29.441 280.778 C 29.445 280.519,29.357 280.094,29.245 279.835 C 29.121 279.546,29.045 279.500,29.050 279.717 M29.861 284.080 C 30.055 284.947,30.190 285.136,30.185 284.532 C 30.183 284.284,30.074 283.921,29.942 283.726 C 29.767 283.468,29.745 283.563,29.861 284.080 M355.922 292.715 C 355.777 293.132,355.700 293.514,355.750 293.564 C 355.800 293.615,355.961 293.315,356.106 292.898 C 356.251 292.482,356.329 292.099,356.278 292.049 C 356.228 291.998,356.068 292.298,355.922 292.715 M355.215 294.838 C 355.070 295.254,354.992 295.637,355.042 295.687 C 355.093 295.738,355.253 295.438,355.398 295.021 C 355.544 294.604,355.621 294.222,355.571 294.171 C 355.520 294.121,355.360 294.421,355.215 294.838 M354.469 296.849 C 354.339 297.191,354.276 297.515,354.329 297.568 C 354.383 297.622,354.539 297.342,354.677 296.946 C 354.984 296.066,354.799 295.980,354.469 296.849 M340.433 320.814 L 339.741 321.580 340.507 320.887 C 341.222 320.242,341.382 320.047,341.200 320.047 C 341.159 320.047,340.814 320.392,340.433 320.814 M339.018 322.465 L 338.325 323.231 339.092 322.538 C 339.806 321.893,339.967 321.698,339.785 321.698 C 339.744 321.698,339.399 322.043,339.018 322.465 M50.698 324.116 C 51.276 324.732,51.780 325.236,51.818 325.236 C 51.995 325.236,51.808 325.024,50.767 324.047 L 49.646 322.995 50.698 324.116 M335.020 326.710 L 331.958 329.835 335.083 326.772 C 337.985 323.927,338.314 323.585,338.145 323.585 C 338.111 323.585,336.705 324.991,335.020 326.710 M55.778 329.245 C 56.285 329.764,56.753 330.189,56.817 330.189 C 56.882 330.189,56.521 329.764,56.014 329.245 C 55.507 328.726,55.040 328.302,54.975 328.302 C 54.910 328.302,55.272 328.726,55.778 329.245 M57.311 330.498 C 57.311 330.539,57.656 330.884,58.078 331.265 L 58.844 331.958 58.152 331.191 C 57.506 330.477,57.311 330.316,57.311 330.498 M62.264 334.520 C 62.264 334.585,62.583 334.864,62.972 335.142 C 63.361 335.419,63.679 335.592,63.679 335.527 C 63.679 335.463,63.361 335.183,62.972 334.906 C 62.583 334.629,62.264 334.455,62.264 334.520 M308.962 344.458 C 308.638 344.643,308.479 344.795,308.608 344.795 C 308.738 344.795,309.110 344.643,309.434 344.458 C 309.758 344.272,309.917 344.120,309.788 344.120 C 309.658 344.120,309.287 344.272,308.962 344.458 M94.222 349.528 C 94.481 349.640,94.906 349.728,95.165 349.724 C 95.544 349.718,95.521 349.680,95.047 349.528 C 94.241 349.270,93.621 349.270,94.222 349.528 M146.639 350.413 C 172.745 350.446,215.463 350.446,241.568 350.413 C 267.674 350.380,246.315 350.353,194.104 350.353 C 141.893 350.353,120.534 350.380,146.639 350.413 "
       stroke="none"
       fill="#6987a6"
       fill-rule="evenodd" />
  </g>
</svg>
